<?xml version="1.0" encoding="utf-8"?>
<!-- Generator: Adobe Illustrator 23.0.6, SVG Export Plug-In . SVG Version: 6.00 Build 0)  -->
<svg version="1.1" id="Layer_1" xmlns="http://www.w3.org/2000/svg" xmlns:xlink="http://www.w3.org/1999/xlink" x="0px" y="0px"
	 viewBox="0 0 406.5 234.2" style="enable-background:new 0 0 406.5 234.2;" xml:space="preserve">
<style type="text/css">
	.st0{fill:#DB5027;}
	.st1{fill:none;stroke:#DB5027;stroke-width:10;stroke-miterlimit:10;}
	.st2{enable-background:new    ;}
</style>
<path id="XMLID_384_" class="st0" d="M395.1,158.9c-3.3,0-6,2.7-6,6.1c0,3.3,2.7,6.1,6,6.1c3.3,0,6-2.7,6-6.1
	S398.4,158.9,395.1,158.9z M395.1,170.3c-2.8,0-5.2-2.4-5.2-5.3c0-3,2.4-5.3,5.2-5.3c2.8,0,5.2,2.4,5.2,5.3
	C400.3,168,397.9,170.3,395.1,170.3z"/>
<path id="XMLID_381_" class="st0" d="M398.1,163.4c0-0.6-0.3-1.1-0.8-1.4c-0.5-0.3-1.1-0.3-1.6-0.3h-2.8v6.7h0.8v-3.1h1.4l1.9,3.1
	h0.9l-2-3.1C397.3,165.2,398.1,164.7,398.1,163.4z M395,164.5h-1.3v-2.4h1.9c0.8,0,1.7,0.2,1.7,1.3
	C397.3,164.7,395.9,164.5,395,164.5z"/>
<g>
	<path class="st0" d="M100.8,92.1c-3.1,6-7.4,10.5-13,13.7c-5.5,3.2-11.9,4.7-19.2,4.7c-5.4,0-10.4-1-14.9-2.9
		c-4.6-2-8.6-4.9-12.3-8.8c-3.1-3.2-5.4-6.9-7-11c-1.6-4.1-2.4-8.5-2.4-13.2c0-4.7,1-9.2,2.9-13.5c1.9-4.3,4.7-8.1,8.4-11.6
		c3.5-3.2,7.4-5.7,11.6-7.4c4.3-1.7,8.8-2.5,13.7-2.5c7.4,0,13.8,1.7,19.4,5c5.6,3.3,9.8,8,12.6,14H88.6c-2.3-3-5.1-5.3-8.5-6.8
		c-3.4-1.5-7.2-2.3-11.4-2.3c-3.4,0-6.6,0.6-9.7,1.8c-3.1,1.2-5.8,3-8.1,5.3c-2.5,2.4-4.4,5.2-5.8,8.4c-1.4,3.2-2.1,6.4-2.1,9.7
		c0,3.6,0.6,6.9,1.9,10.1c1.2,3.2,3,5.9,5.4,8.2c2.5,2.4,5.3,4.3,8.5,5.7c3.2,1.3,6.5,2,9.9,2c4.1,0,7.8-0.7,11.1-2.2
		c3.3-1.5,6-3.6,8.2-6.4H100.8z"/>
	<path class="st0" d="M107.8,83.5c0-3.7,0.6-7.1,1.9-10.2c1.3-3.2,3.2-6,5.7-8.5c2.7-2.8,5.8-4.9,9.2-6.4c3.4-1.5,7-2.2,10.7-2.2
		c3.9,0,7.6,0.7,11,2c3.4,1.3,6.4,3.3,9.2,5.9c2.7,2.6,4.7,5.5,6.1,8.8c1.4,3.2,2.1,6.6,2.1,10.1c0,3.5-0.7,7-2,10.3
		c-1.3,3.3-3.2,6.3-5.6,8.8c-2.8,2.9-5.9,5-9.3,6.5c-3.4,1.5-7.1,2.2-11,2.2c-4,0-7.6-0.7-11-2c-3.4-1.4-6.4-3.4-9-6
		c-2.5-2.5-4.5-5.5-5.9-8.8C108.5,90.5,107.8,87,107.8,83.5z M117.9,83.4c0,5.1,1.7,9.4,5.2,12.9c3.4,3.4,7.7,5.1,12.9,5.1
		c5,0,9.3-1.7,12.7-5.2c3.4-3.4,5.1-7.8,5.1-12.9c0-5.2-1.7-9.5-5.1-12.9c-3.4-3.4-7.7-5.1-12.8-5.1c-5.1,0-9.3,1.7-12.8,5.2
		C119.6,73.9,117.9,78.3,117.9,83.4z"/>
	<path class="st0" d="M182.1,109.2h-9.8V57.7h9.2v5.9c1.6-2.3,3.5-4,5.6-5.1c2.1-1.1,4.5-1.7,7.3-1.7v9.7c-4.4,0.3-7.5,1.5-9.4,3.7
		c-1.9,2.1-2.8,5.6-2.8,10.3V109.2z"/>
	<path class="st0" d="M198.3,83.5c0-3.7,0.6-7.1,1.9-10.2c1.3-3.2,3.2-6,5.7-8.5c2.7-2.8,5.8-4.9,9.2-6.4c3.4-1.5,7-2.2,10.7-2.2
		c3.9,0,7.6,0.7,11,2c3.4,1.3,6.4,3.3,9.2,5.9c2.7,2.6,4.7,5.5,6.1,8.8c1.4,3.2,2.1,6.6,2.1,10.1c0,3.5-0.7,7-2,10.3
		c-1.3,3.3-3.2,6.3-5.6,8.8c-2.8,2.9-5.9,5-9.3,6.5c-3.4,1.5-7.1,2.2-11,2.2c-4,0-7.6-0.7-11-2c-3.4-1.4-6.4-3.4-9-6
		c-2.5-2.5-4.5-5.5-5.9-8.8C199,90.5,198.3,87,198.3,83.5z M208.4,83.4c0,5.1,1.7,9.4,5.2,12.9c3.4,3.4,7.7,5.1,12.9,5.1
		c5,0,9.3-1.7,12.7-5.2c3.4-3.4,5.1-7.8,5.1-12.9c0-5.2-1.7-9.5-5.1-12.9c-3.4-3.4-7.7-5.1-12.8-5.1c-5.1,0-9.3,1.7-12.8,5.2
		C210.1,73.9,208.4,78.3,208.4,83.4z"/>
	<path class="st0" d="M272.4,109.2h-9.8V57.7h9.4v5.8c2-2.3,4.3-4,6.7-5.1c2.5-1.1,5.3-1.6,8.4-1.6c7.1,0,12.6,2,16.4,5.9
		c3.8,4,5.7,9.6,5.7,17v29.3h-9.8V81.9c0-5.5-1.1-9.5-3.2-12.1c-2.1-2.6-5.4-4-9.9-4c-4.9,0-8.4,1.6-10.6,4.7
		c-2.2,3.1-3.3,8.2-3.3,15.4V109.2z"/>
	<path class="st0" d="M364.6,109.2v-6.3c-2.5,2.5-5.3,4.3-8.4,5.6c-3.1,1.3-6.4,1.9-9.8,1.9c-8.2,0-14.9-2.6-20.3-7.7
		c-5.4-5.2-8.1-11.6-8.1-19.4c0-3.6,0.7-7,2-10.3c1.3-3.2,3.3-6.1,5.8-8.6c2.7-2.7,5.7-4.7,9-6c3.2-1.3,6.9-1.9,11.1-1.9
		c3.7,0,7.1,0.6,10.3,1.9c3.1,1.2,6,3.1,8.5,5.7v-6.2h9.9v51.5H364.6z M328.1,83.2c0,5.2,1.8,9.6,5.5,13.1c3.6,3.5,8.1,5.3,13.3,5.3
		c4.8,0,9-1.8,12.7-5.3c3.7-3.5,5.5-7.7,5.5-12.4c0-5.1-1.8-9.4-5.5-13c-3.6-3.6-8-5.4-13-5.4c-5.1,0-9.5,1.7-13.2,5.1
		C329.9,74,328.1,78.2,328.1,83.2z"/>
</g>
<path class="st1" d="M359.1,152.1H48.3c-21.1,0-38.2-17.1-38.2-38.2V50.8c0-21.1,17.1-38.2,38.2-38.2h310.8
	c21.1,0,38.2,17.1,38.2,38.2v63.1C397.3,135,380.2,152.1,359.1,152.1z"/>
<g class="st2">
	<path class="st0" d="M175.5,213.2h-20.2v-42.7h6.2v36.8h14V213.2z"/>
	<path class="st0" d="M185.9,177.2h-5.7v-6.7h5.7V177.2z M180.2,213.2V181h5.7v32.2H180.2z"/>
	<path class="st0" d="M193.3,215.8h6.2c0.9,1.5,2.1,2.7,3.5,3.4c1.5,0.8,3.1,1.2,5,1.2c3.3,0,5.9-1,7.9-2.9s3-4.6,3-7.8v-0.4
		c-1.5,1.5-3.1,2.7-5,3.5c-1.8,0.8-3.8,1.2-5.8,1.2c-4.8,0-8.9-1.6-12.1-4.8c-3.2-3.2-4.8-7.3-4.8-12.1c0-2.3,0.4-4.4,1.2-6.4
		c0.8-2,1.9-3.8,3.4-5.4c1.6-1.7,3.4-3,5.3-3.8c1.9-0.8,4.1-1.2,6.6-1.2c2.2,0,4.2,0.4,6.1,1.2c1.9,0.8,3.6,2,5.1,3.5V181h5.8v26.9
		c0,5.6-1.5,10-4.4,13.2c-2.9,3.2-6.9,4.8-12,4.8c-3.7,0-6.8-0.9-9.5-2.6C196.3,221.4,194.4,219,193.3,215.8z M197.2,196.9
		c0,3.3,1.1,6,3.2,8.2c2.2,2.2,4.8,3.3,7.9,3.3c2.9,0,5.4-1.1,7.5-3.3c2.2-2.2,3.3-4.8,3.3-7.8c0-3.2-1.1-5.9-3.2-8.1
		c-2.2-2.3-4.7-3.4-7.7-3.4c-3,0-5.6,1.1-7.8,3.2C198.3,191.2,197.2,193.8,197.2,196.9z"/>
	<path class="st0" d="M237.3,213.2h-5.8v-42.7h5.8v14.1c0.9-1.4,2.2-2.4,3.6-3.1s3.2-1.1,5.2-1.1c3.9,0,6.9,1.3,9.1,3.8
		s3.3,6,3.3,10.5v18.5h-5.8v-16.6c0-3.6-0.6-6.2-1.8-8s-3.1-2.6-5.6-2.6c-1.5,0-2.9,0.4-4,1.1s-2.1,1.7-2.8,3
		c-0.4,0.8-0.7,1.8-0.9,2.9c-0.2,1.2-0.3,3-0.3,5.5V213.2z"/>
	<path class="st0" d="M267.3,213.2v-27h-4.6V181h4.6v-10.4h5.8V181h4.6v5.3h-4.6v27H267.3z"/>
</g>
</svg>
