<?xml version="1.0" encoding="utf-8"?>
<!-- Generator: Adobe Illustrator 23.0.6, SVG Export Plug-In . SVG Version: 6.00 Build 0)  -->
<svg version="1.1" id="Layer_1" xmlns="http://www.w3.org/2000/svg" xmlns:xlink="http://www.w3.org/1999/xlink" x="0px" y="0px"
	 viewBox="0 0 409.5 263.3" style="enable-background:new 0 0 409.5 263.3;" xml:space="preserve">
<style type="text/css">
	.st0{fill:#DB5027;}
	.st1{fill-rule:evenodd;clip-rule:evenodd;fill:#DB5027;}
	.st2{fill:none;stroke:#DB5027;stroke-width:9;stroke-miterlimit:10;}
</style>
<title>logo-corona-seltzer</title>
<path class="st0" d="M117,188.6c6.9,0,10.6,3.3,10.6,9.6v7c0,0.7-0.4,1.1-1.2,1.1h-7.7c-0.5,0.1-1.1-0.3-1.2-0.8c0-0.1,0-0.2,0-0.3
	V200c0-1.7-1-2.7-3-2.7H111c-1.8,0-3,0.9-3,2.7v9.2l17.6,5.2c1.1,0.3,1.9,1.3,1.9,2.4v15.4c0,6.2-3.7,9.6-10.6,9.6h-8.3
	c-6.9,0-10.6-3.3-10.6-9.6v-7c0-0.7,0.4-1.1,1.2-1.1h7.8c0.8,0,1.2,0.3,1.2,1.1v5.1c0,1.8,1.1,2.6,3,2.6h3.5c1.9,0,3-0.9,3-2.6v-8.8
	l-17.5-5.2c-1.2-0.2-2-1.3-2-2.5v-15.6c0-6.2,3.8-9.6,10.6-9.6L117,188.6L117,188.6z"/>
<path class="st0" d="M165.2,196.3c0,0.7-0.3,1.1-1.2,1.1h-18.4v13.3h14.1c0.6-0.1,1.1,0.3,1.2,0.9c0,0.1,0,0.1,0,0.2v6.6
	c0,0.6-0.4,1.1-1,1.1c-0.1,0-0.1,0-0.2,0h-14.1v13.4H164c0.9,0,1.2,0.3,1.2,1.1v6.6c0,0.7-0.3,1.1-1.2,1.1h-27.2
	c-0.5,0.1-1-0.3-1.1-0.9c0-0.1,0-0.1,0-0.2v-51c0-0.6,0.4-1,0.9-1.1c0.1,0,0.1,0,0.2,0H164c0.9,0,1.2,0.4,1.2,1.1L165.2,196.3
	L165.2,196.3z"/>
<path class="st0" d="M183.4,232.9H201c0.8,0,1.2,0.4,1.2,1.1v6.6c0,0.7-0.4,1.1-1.2,1.1h-26.5c-0.7,0-1.2-0.3-1.2-1.1v-51
	c0-0.7,0.4-1.1,1.2-1.1h7.7c0.8,0,1.2,0.4,1.2,1.1V232.9z"/>
<path class="st0" d="M232.6,188.6c0.8,0,1.2,0.4,1.2,1.1v6.6c0,0.7-0.4,1.1-1.2,1.1H224v43.3c0,0.7-0.4,1.1-1.2,1.1h-7.7
	c-0.7,0-1.2-0.3-1.2-1.1v-43.3h-8.6c-0.5,0.1-1.1-0.3-1.2-0.8c0-0.1,0-0.2,0-0.3v-6.6c0-0.7,0.4-1.1,1.2-1.1H232.6z"/>
<path class="st0" d="M270.4,188.6c1.2,0,1.5,0.7,1.1,1.6L253.1,233h16.2c0.7,0,1.2,0.3,1.2,1.1v6.6c0,0.7-0.4,1.1-1.2,1.1h-28.7
	c-1.2,0-1.6-0.7-1.1-1.6l18.4-42.7h-15.3c-0.5,0.1-1.1-0.3-1.2-0.8c0-0.1,0-0.2,0-0.3v-6.7c0-0.7,0.4-1.1,1.2-1.1L270.4,188.6
	L270.4,188.6z"/>
<path class="st0" d="M308.9,196.3c0,0.7-0.3,1.1-1.2,1.1h-18.5v13.3h14.1c0.6-0.1,1.1,0.3,1.2,0.9c0,0.1,0,0.1,0,0.2v6.6
	c0,0.6-0.4,1.1-1,1.1c-0.1,0-0.1,0-0.2,0h-14.1v13.4h18.5c0.9,0,1.2,0.3,1.2,1.1v6.6c0,0.7-0.3,1.1-1.2,1.1h-27.2
	c-0.5,0.1-1-0.3-1.1-0.9c0-0.1,0-0.1,0-0.2v-51c0-0.6,0.4-1,0.9-1.1c0.1,0,0.1,0,0.2,0h27.2c0.9,0,1.2,0.4,1.2,1.1V196.3z"/>
<path class="st0" d="M347.4,214.4c0,4.4-1.9,7.4-5.4,8.8l5.1,17.4c0.2,0.8-0.2,1.2-1,1.2h-7.7c-0.6,0.1-1.2-0.3-1.3-0.9l-5-16.9H327
	v16.7c0,0.6-0.4,1-0.9,1.1c-0.1,0-0.2,0-0.3,0h-7.7c-0.5,0.1-1.1-0.3-1.2-0.8c0-0.1,0-0.2,0-0.3v-51c0-0.6,0.4-1,0.9-1.1
	c0.1,0,0.2,0,0.3,0h18.5c6.9,0,10.6,3.3,10.6,9.6L347.4,214.4z M334.4,215.1c1.9,0,3-0.9,3-2.6V200c0-1.7-1-2.7-3-2.7h-7.3v17.8
	H334.4z"/>
<path class="st0" d="M202.7,164c0-0.1,0.1-0.3,0.3-0.3c0,0,0,0,0.1,0h2c0.2,0,0.3,0.1,0.3,0.3v13.4c0,0.2-0.1,0.3-0.3,0.3h-2
	c-0.1,0-0.3-0.1-0.3-0.2c0,0,0,0,0-0.1v-5.5h-2.5v5.5c0,0.1-0.1,0.3-0.3,0.3c0,0,0,0-0.1,0h-2c-0.2,0-0.3-0.1-0.3-0.3V164
	c0-0.2,0.1-0.3,0.3-0.3h2c0.1,0,0.3,0.1,0.3,0.2c0,0,0,0,0,0.1v5.5h2.5V164z"/>
<path class="st0" d="M218,177.6c-0.1,0-0.3-0.1-0.3-0.2l-0.5-2.6h-3.4l-0.5,2.6c0,0.1-0.2,0.2-0.3,0.2h-2.1c-0.2,0-0.3-0.1-0.3-0.3
	l3.2-13.4c0-0.2,0.2-0.3,0.3-0.2h2.7c0.2,0,0.3,0.1,0.3,0.2l3.2,13.4c0,0.2,0,0.3-0.3,0.3H218z M215.4,166.7l-1.2,6.1h2.5
	L215.4,166.7z"/>
<path class="st0" d="M233.5,170.4c0.1,1-0.5,1.9-1.4,2.3l1.3,4.6c0,0.2-0.1,0.3-0.3,0.3h-2c-0.2,0-0.3-0.1-0.3-0.2l-1.3-4.4h-1.3
	v4.4c0,0.1-0.1,0.3-0.3,0.3c0,0,0,0-0.1,0h-2c-0.1,0-0.3-0.1-0.3-0.2c0,0,0,0,0-0.1V164c0-0.1,0.1-0.3,0.3-0.3c0,0,0,0,0.1,0h4.9
	c1.8,0,2.8,0.9,2.8,2.5L233.5,170.4z M230.1,170.7c0.5,0,0.8-0.2,0.8-0.7v-3.3c0-0.5-0.3-0.7-0.8-0.7h-1.9v4.7H230.1z"/>
<path class="st0" d="M238.8,164c0-0.2,0.1-0.3,0.3-0.3h4.6c1.8,0,2.8,0.9,2.8,2.5v8.9c0,1.6-1,2.5-2.8,2.5h-4.6
	c-0.2,0-0.3-0.1-0.3-0.3V164z M243.3,175.4c0.5,0,0.8-0.2,0.8-0.7v-8c0-0.5-0.3-0.7-0.8-0.7h-1.8v9.3L243.3,175.4z"/>
<path class="st0" d="M103.1,250.8c1.1-0.1,2.1,0.6,2.3,1.7c0,0.2,0,0.4,0,0.5v1.7c0,0.1-0.1,0.2-0.2,0.3l0,0h-1.6
	c-0.1,0-0.2-0.1-0.3-0.2l0,0v-1.2c0-0.3-0.2-0.6-0.5-0.6c0,0-0.1,0-0.2,0h-0.8c-0.3,0-0.6,0.2-0.6,0.5v0.1v2.1l3.7,1.2
	c0.3,0.1,0.4,0.3,0.4,0.6v3.6c0.1,1.1-0.6,2.1-1.7,2.3c-0.2,0-0.4,0-0.5,0h-1.8c-1.1,0.1-2.1-0.6-2.2-1.7c0-0.2,0-0.4,0-0.5v-1.6
	c0-0.1,0.1-0.2,0.2-0.3c0,0,0,0,0.1,0h1.7c0.1,0,0.2,0.1,0.3,0.2c0,0,0,0,0,0.1v1.2c0,0.3,0.2,0.6,0.5,0.6c0,0,0.1,0,0.2,0h0.8
	c0.3,0,0.6-0.2,0.6-0.5c0-0.1,0-0.1,0-0.2v-2.1l-3.7-1.2c-0.3-0.1-0.4-0.3-0.4-0.6v-3.7c-0.1-1.1,0.6-2.1,1.7-2.2c0.2,0,0.4,0,0.5,0
	L103.1,250.8z"/>
<path class="st0" d="M111.1,251.1c0-0.1,0.1-0.2,0.2-0.3l0,0h3.8c1.1-0.1,2.1,0.6,2.2,1.7c0,0.2,0,0.4,0,0.5v3.8
	c0.1,1.1-0.6,2.1-1.7,2.2c-0.2,0-0.4,0-0.5,0h-1.9v3.9c0,0.1-0.1,0.2-0.2,0.3c0,0,0,0-0.1,0h-1.6c-0.1,0-0.2-0.1-0.3-0.2l0,0
	L111.1,251.1z M114.6,257.1c0.3,0,0.6-0.2,0.6-0.5v-0.1v-2.9c0-0.3-0.2-0.6-0.5-0.6c-0.1,0-0.1,0-0.2,0h-1.4v4.2h1.5V257.1z"/>
<path class="st0" d="M125,250.8c0.1,0,0.2,0.1,0.3,0.2l0,0v12c0,0.1-0.1,0.2-0.2,0.3l0,0h-1.6c-0.1,0-0.2-0.1-0.3-0.2c0,0,0,0,0-0.1
	v-12c0-0.1,0.1-0.2,0.2-0.3l0,0h1.6V250.8z"/>
<path class="st0" d="M136,263.3c-0.2,0-0.3-0.1-0.4-0.2l-2-4.6l-0.6,1.1v3.4c0,0.2-0.1,0.3-0.2,0.3h-0.1h-1.5
	c-0.2,0-0.3-0.1-0.3-0.3l0,0v-11.8c0-0.2,0.1-0.3,0.3-0.3c0,0,0,0,0.1,0h1.5c0.2,0,0.3,0.1,0.3,0.3c0,0,0,0,0,0.1v4.8l2.4-4.9
	c0.1-0.1,0.2-0.2,0.4-0.2h1.6c0.2,0,0.3,0.2,0.2,0.4l-2.7,5.4l2.8,6.3c0.1,0.2,0,0.4-0.2,0.4L136,263.3z"/>
<path class="st0" d="M149.8,252.6c0,0.2-0.1,0.3-0.3,0.3h-3.9v3.1h3c0.1,0,0.2,0.1,0.3,0.2l0,0v1.5c0,0.1-0.1,0.3-0.2,0.3l0,0h-3
	v3.1h3.9c0.2,0,0.3,0.1,0.3,0.3v1.6c0,0.1-0.1,0.2-0.2,0.3c0,0,0,0-0.1,0h-5.8c-0.1,0-0.2-0.1-0.2-0.2l0,0v-12
	c0-0.1,0.1-0.2,0.2-0.2l0,0h5.8c0.1,0,0.2,0.1,0.3,0.2c0,0,0,0,0,0.1v1.4H149.8z"/>
<path class="st0" d="M155.6,251.1c0-0.1,0.1-0.2,0.2-0.3l0,0h3.7c1.1-0.1,2.1,0.6,2.3,1.7c0,0.2,0,0.4,0,0.6v8
	c0.1,1.1-0.6,2.1-1.7,2.3c-0.2,0-0.4,0-0.5,0h-3.7c-0.1,0-0.2-0.1-0.3-0.2c0,0,0,0,0-0.1V251.1z M159.2,261.3c0.3,0,0.6-0.2,0.6-0.5
	c0,0,0-0.1,0-0.2v-7.1c0-0.3-0.2-0.6-0.5-0.6h-0.1h-1.4v8.4L159.2,261.3L159.2,261.3z"/>
<path class="st0" d="M179.7,250.8c1.1-0.1,2.1,0.6,2.3,1.7c0,0.2,0,0.4,0,0.5v1.7c0,0.1-0.1,0.2-0.2,0.3l0,0h-1.6
	c-0.1,0-0.2-0.1-0.3-0.2l0,0v-1.2c0-0.3-0.2-0.6-0.5-0.6c0,0-0.1,0-0.2,0h-0.8c-0.3,0-0.6,0.2-0.6,0.5v0.1v2.1l3.7,1.2
	c0.3,0.1,0.4,0.3,0.4,0.6v3.6c0.1,1.1-0.6,2.1-1.7,2.3c-0.2,0-0.4,0-0.5,0H178c-1.1,0.1-2.1-0.6-2.3-1.7c0-0.2,0-0.4,0-0.5v-1.6
	c0-0.1,0.1-0.2,0.2-0.3l0,0h1.6c0.1,0,0.2,0.1,0.3,0.2c0,0,0,0,0,0.1v1.2c0,0.3,0.2,0.6,0.5,0.6c0,0,0.1,0,0.2,0h0.8
	c0.3,0,0.6-0.2,0.6-0.5c0-0.1,0-0.1,0-0.2v-2.1l-3.7-1.2c-0.3-0.1-0.4-0.3-0.4-0.6v-3.7c-0.1-1.1,0.6-2.1,1.7-2.3c0.2,0,0.4,0,0.5,0
	L179.7,250.8z"/>
<path class="st0" d="M187.8,251.1c0-0.1,0.1-0.2,0.2-0.3l0,0h3.7c1.1-0.1,2.1,0.6,2.3,1.7c0,0.2,0,0.4,0,0.5v3.8
	c0.1,1.1-0.6,2.1-1.7,2.3c-0.2,0-0.4,0-0.5,0h-1.9v3.9c0,0.1-0.1,0.2-0.2,0.3c0,0,0,0-0.1,0H188c-0.1,0-0.2-0.1-0.3-0.2l0,0v-12
	H187.8z M191.3,257.1c0.3,0,0.6-0.2,0.6-0.5v-0.1v-2.9c0-0.3-0.2-0.6-0.5-0.6c-0.1,0-0.1,0-0.2,0h-1.4v4.2h1.5V257.1z"/>
<path class="st0" d="M205.1,263.3c-0.1,0-0.2-0.1-0.3-0.2l-0.4-2.3h-2.8l-0.4,2.3c0,0.1-0.1,0.2-0.3,0.2h-1.7
	c-0.2,0-0.3-0.1-0.2-0.3l2.6-12c0-0.1,0.1-0.2,0.3-0.2l0,0h2.2c0.1,0,0.2,0.1,0.3,0.2l2.6,12c0,0.2,0,0.3-0.2,0.3H205.1z M203,253.6
	l-1,5.4h2L203,253.6z"/>
<path class="st0" d="M219.1,256.9c0.1,0.9-0.4,1.7-1.1,2.1l1.1,4.1c0.1,0.2,0,0.3-0.2,0.3h-1.6c-0.1,0-0.3-0.1-0.3-0.2l-1-4h-1.1
	v3.9c0,0.1-0.1,0.2-0.2,0.3l0,0H213c-0.1,0-0.2-0.1-0.3-0.2l0,0v-12c0-0.1,0.1-0.2,0.2-0.3l0,0h3.9c1.1-0.1,2.1,0.6,2.2,1.7
	c0,0.2,0,0.4,0,0.5L219.1,256.9z M216.3,257.1c0.3,0,0.6-0.2,0.6-0.5v-0.1v-2.9c0-0.3-0.2-0.6-0.5-0.6h-0.1h-1.6v4.2h1.6V257.1z"/>
<path class="st0" d="M229.9,263.3c-0.2,0-0.3-0.1-0.4-0.2l-2-4.6l-0.6,1.1v3.4c0,0.2-0.1,0.3-0.2,0.3c0,0,0,0-0.1,0h-1.5
	c-0.2,0-0.3-0.1-0.3-0.2V263v-11.8c0-0.2,0.1-0.3,0.3-0.3c0,0,0,0,0.1,0h1.5c0.2,0,0.3,0.1,0.3,0.2v0.1v4.8l2.4-4.9
	c0.1-0.1,0.2-0.2,0.4-0.2h1.6c0.2,0,0.3,0.2,0.2,0.4l-2.7,5.4l2.8,6.3c0.1,0.2,0,0.4-0.2,0.4L229.9,263.3z"/>
<path class="st0" d="M239.6,261.3h3.7c0.1,0,0.2,0.1,0.3,0.2c0,0,0,0,0,0.1v1.6c0,0.1-0.1,0.2-0.2,0.3c0,0,0,0-0.1,0h-5.6
	c-0.1,0-0.2-0.1-0.3-0.2c0,0,0,0,0-0.1v-12c0-0.1,0.1-0.2,0.2-0.3l0,0h1.6c0.1,0,0.2,0.1,0.3,0.2c0,0,0,0,0,0.1v10.1H239.6z"/>
<path class="st0" d="M251.2,250.8c0.1,0,0.2,0.1,0.3,0.2l0,0v12c0,0.1-0.1,0.2-0.2,0.3l0,0h-1.6c-0.1,0-0.2-0.1-0.3-0.2
	c0,0,0,0,0-0.1v-12c0-0.1,0.1-0.2,0.2-0.3l0,0h1.6V250.8z"/>
<path class="st0" d="M263.6,250.8c0.1,0,0.2,0.1,0.3,0.2l0,0v12c0,0.1-0.1,0.2-0.2,0.3l0,0h-1.5c-0.1,0-0.2-0.1-0.3-0.2l-2.4-6.7
	h-0.1v6.6c0,0.1-0.1,0.2-0.2,0.3c0,0,0,0-0.1,0h-1.6c-0.1,0-0.2-0.1-0.3-0.2l0,0v-12c0-0.1,0.1-0.2,0.2-0.3l0,0h1.5
	c0.1,0,0.2,0.1,0.3,0.2l2.4,6.6h0.1V251c0-0.1,0.1-0.2,0.2-0.3l0,0L263.6,250.8z"/>
<path class="st0" d="M269.6,253.1c-0.1-1.1,0.6-2.1,1.7-2.3c0.2,0,0.4,0,0.5,0h2.1c1.1-0.1,2.1,0.6,2.2,1.7c0,0.2,0,0.4,0,0.5v1.6
	c0,0.1-0.1,0.2-0.2,0.3l0,0h-1.6c-0.1,0-0.2-0.1-0.3-0.2c0,0,0,0,0-0.1v-1.2c0-0.3-0.2-0.6-0.5-0.6h-0.1h-1.1
	c-0.3,0-0.6,0.2-0.6,0.5c0,0.1,0,0.1,0,0.2v7.1c0,0.3,0.2,0.6,0.5,0.6c0,0,0.1,0,0.2,0h1.1c0.3,0,0.6-0.2,0.6-0.5c0,0,0-0.1,0-0.2
	v-2.1h-0.8c-0.1,0-0.2-0.1-0.3-0.2c0,0,0,0,0-0.1v-1.6c0-0.1,0.1-0.2,0.2-0.3c0,0,0,0,0.1,0h2.6c0.1,0,0.2,0.1,0.3,0.2
	c0,0,0,0,0,0.1v4.3c0.1,1.1-0.6,2.1-1.7,2.2c-0.2,0-0.4,0-0.5,0h-2.1c-1.1,0.1-2.1-0.6-2.3-1.7c0-0.2,0-0.4,0-0.5L269.6,253.1
	L269.6,253.1z"/>
<path class="st0" d="M300.1,250.8c0.1,0,0.3,0.1,0.3,0.2v0.1l-1.3,11.8c0,0.2-0.1,0.3-0.3,0.3h-1.5c-0.2,0-0.3-0.1-0.3-0.3l-1.6-7
	l-1.6,7.1c0,0.2-0.2,0.3-0.3,0.3h-1.6c-0.2,0-0.3-0.1-0.3-0.2c0,0,0,0,0-0.1l-1.3-11.9c0-0.1,0.1-0.3,0.2-0.3h0.1h1.5
	c0.2,0,0.3,0.1,0.3,0.3l0,0l0.6,7.3h0.1l1.5-7.3c0-0.2,0.2-0.3,0.3-0.3h0.9c0.2,0,0.3,0.1,0.3,0.3l1.5,7.3h0.1l0.6-7.3
	c0-0.2,0.1-0.3,0.3-0.3l0,0L300.1,250.8z"/>
<path class="st0" d="M311.5,263.3c-0.1,0-0.2-0.1-0.3-0.2l-0.4-2.3H308l-0.4,2.3c0,0.1-0.1,0.2-0.3,0.2h-1.7c-0.2,0-0.3-0.1-0.2-0.3
	l2.6-12c0-0.1,0.1-0.2,0.3-0.2l0,0h2.2c0.1,0,0.2,0.1,0.3,0.2l2.6,12c0,0.2,0,0.3-0.2,0.3H311.5z M309.4,253.6l-1,5.4h2L309.4,253.6
	z"/>
<path class="st0" d="M323.8,250.8c0.1,0,0.2,0.1,0.3,0.2l0,0v1.6c0,0.1-0.1,0.2-0.2,0.3c0,0,0,0-0.1,0H322v10.2
	c0,0.1-0.1,0.2-0.2,0.3c0,0,0,0-0.1,0h-1.6c-0.1,0-0.2-0.1-0.3-0.2c0,0,0,0,0-0.1v-10.2H318c-0.1,0-0.2-0.1-0.3-0.2l0,0v-1.6
	c0-0.1,0.1-0.2,0.2-0.3l0,0L323.8,250.8L323.8,250.8z"/>
<path class="st0" d="M335.9,252.6c0,0.2-0.1,0.3-0.3,0.3h-3.9v3.1h3c0.1,0,0.2,0.1,0.3,0.2l0,0v1.5c0,0.1-0.1,0.3-0.2,0.3l0,0h-3
	v3.1h3.9c0.2,0,0.3,0.1,0.3,0.3v1.6c0,0.1-0.1,0.2-0.2,0.3c0,0,0,0-0.1,0h-5.8c-0.1,0-0.2-0.1-0.2-0.2l0,0v-12
	c0-0.1,0.1-0.2,0.2-0.2l0,0h5.8c0.1,0,0.2,0.1,0.3,0.2c0,0,0,0,0,0.1L335.9,252.6L335.9,252.6z"/>
<path class="st0" d="M348.1,256.9c0.1,0.9-0.3,1.7-1.1,2.1l1.1,4.1c0,0.2,0,0.3-0.2,0.3h-1.6c-0.1,0-0.3-0.1-0.3-0.2l-1-4h-1.2v3.9
	c0,0.1-0.1,0.2-0.2,0.3l0,0H342c-0.1,0-0.2-0.1-0.3-0.2l0,0v-12c0-0.1,0.1-0.2,0.2-0.3l0,0h3.9c1.1-0.1,2.1,0.6,2.3,1.7
	c0,0.2,0,0.4,0,0.5L348.1,256.9L348.1,256.9z M345.4,257.1c0.3,0,0.6-0.2,0.6-0.5v-0.1v-2.9c0-0.3-0.2-0.6-0.5-0.6h-0.1h-1.6v4.2
	h1.6V257.1z"/>
<path class="st1" d="M354.2,144.7c0.6-0.1,1-0.7,1.1-1.3c0-0.7-0.5-1.3-1.8-1.3h-2v4.7h0.9v-2h0.9c0.5,0.6,1,1.3,1.3,2h1.1
	C355.2,146.1,354.7,145.4,354.2,144.7z M353.4,144.1h-1.1v-1.3h1.1c0.4,0,0.9,0.1,0.9,0.6S353.8,144.1,353.4,144.1L353.4,144.1z"/>
<path class="st1" d="M348.9,144.4c0,2.5,2,4.4,4.5,4.4s4.4-2,4.4-4.4c0-2.5-2-4.4-4.4-4.4S348.9,142,348.9,144.4L348.9,144.4z
	 M349.8,144.4c0-2,1.6-3.6,3.6-3.6s3.6,1.6,3.6,3.6s-1.6,3.6-3.6,3.6l0,0C351.4,148,349.8,146.4,349.8,144.4L349.8,144.4z"/>
<g>
	<path class="st0" d="M151.9,104.6c-2.1,4-4.9,7-8.6,9.1c-3.7,2.1-7.9,3.2-12.7,3.2c-3.6,0-6.9-0.7-9.9-2c-3-1.3-5.7-3.2-8.1-5.8
		c-2-2.1-3.6-4.6-4.6-7.3c-1-2.7-1.6-5.6-1.6-8.8c0-3.2,0.6-6.1,1.9-9c1.3-2.8,3.1-5.4,5.6-7.7c2.3-2.2,4.9-3.8,7.7-4.9
		c2.8-1.1,5.9-1.7,9.1-1.7c4.9,0,9.2,1.1,12.9,3.3c3.7,2.2,6.5,5.3,8.4,9.3h-8.1c-1.5-2-3.4-3.5-5.6-4.5c-2.2-1-4.8-1.5-7.6-1.5
		c-2.3,0-4.4,0.4-6.4,1.2s-3.8,2-5.4,3.5c-1.6,1.6-2.9,3.5-3.8,5.6c-0.9,2.1-1.4,4.3-1.4,6.5c0,2.4,0.4,4.6,1.2,6.7
		c0.8,2.1,2,3.9,3.6,5.5c1.6,1.6,3.5,2.9,5.7,3.8c2.1,0.9,4.3,1.3,6.6,1.3c2.7,0,5.2-0.5,7.4-1.5c2.2-1,4-2.4,5.4-4.3H151.9z"/>
	<path class="st0" d="M156.6,98.8c0-2.4,0.4-4.7,1.3-6.8c0.9-2.1,2.1-4,3.8-5.7c1.8-1.8,3.9-3.3,6.1-4.3c2.3-1,4.6-1.5,7.1-1.5
		c2.6,0,5.1,0.4,7.3,1.3c2.2,0.9,4.3,2.2,6.1,3.9c1.8,1.7,3.1,3.7,4.1,5.8c1,2.2,1.4,4.4,1.4,6.7c0,2.3-0.4,4.6-1.3,6.8
		c-0.9,2.2-2.1,4.2-3.7,5.8c-1.8,1.9-3.9,3.4-6.2,4.3c-2.3,1-4.7,1.5-7.3,1.5c-2.6,0-5.1-0.5-7.3-1.4c-2.2-0.9-4.2-2.2-6-4
		c-1.7-1.7-3-3.6-4-5.9C157,103.4,156.6,101.2,156.6,98.8z M163.3,98.8c0,3.4,1.1,6.3,3.4,8.6c2.3,2.3,5.1,3.4,8.5,3.4
		c3.3,0,6.1-1.1,8.4-3.4c2.3-2.3,3.4-5.2,3.4-8.6c0-3.5-1.1-6.3-3.4-8.6c-2.3-2.3-5.1-3.4-8.5-3.4c-3.4,0-6.2,1.1-8.5,3.4
		C164.4,92.5,163.3,95.3,163.3,98.8z"/>
	<path class="st0" d="M205.9,115.9h-6.5V81.7h6.1v3.9c1.1-1.5,2.3-2.6,3.7-3.4c1.4-0.7,3-1.1,4.8-1.1v6.4c-2.9,0.2-5,1-6.2,2.4
		c-1.3,1.4-1.9,3.7-1.9,6.9V115.9z"/>
	<path class="st0" d="M216.7,98.8c0-2.4,0.4-4.7,1.3-6.8c0.9-2.1,2.1-4,3.8-5.7c1.8-1.8,3.9-3.3,6.1-4.3c2.3-1,4.6-1.5,7.1-1.5
		c2.6,0,5.1,0.4,7.3,1.3c2.2,0.9,4.3,2.2,6.1,3.9c1.8,1.7,3.1,3.7,4.1,5.8c1,2.2,1.4,4.4,1.4,6.7c0,2.3-0.4,4.6-1.3,6.8
		c-0.9,2.2-2.1,4.2-3.7,5.8c-1.8,1.9-3.9,3.4-6.2,4.3c-2.3,1-4.7,1.5-7.3,1.5c-2.6,0-5.1-0.5-7.3-1.4c-2.2-0.9-4.2-2.2-6-4
		c-1.7-1.7-3-3.6-4-5.9C217.1,103.4,216.7,101.2,216.7,98.8z M223.4,98.8c0,3.4,1.1,6.3,3.4,8.6c2.3,2.3,5.1,3.4,8.5,3.4
		c3.3,0,6.1-1.1,8.4-3.4c2.3-2.3,3.4-5.2,3.4-8.6c0-3.5-1.1-6.3-3.4-8.6c-2.3-2.3-5.1-3.4-8.5-3.4c-3.4,0-6.2,1.1-8.5,3.4
		C224.5,92.5,223.4,95.3,223.4,98.8z"/>
	<path class="st0" d="M265.9,115.9h-6.5V81.7h6.2v3.9c1.4-1.5,2.8-2.7,4.5-3.4c1.6-0.7,3.5-1.1,5.6-1.1c4.7,0,8.3,1.3,10.9,3.9
		c2.5,2.6,3.8,6.4,3.8,11.3v19.5h-6.5V97.8c0-3.6-0.7-6.3-2.1-8.1c-1.4-1.8-3.6-2.6-6.6-2.6c-3.2,0-5.6,1-7,3.1
		c-1.5,2.1-2.2,5.5-2.2,10.2V115.9z"/>
	<path class="st0" d="M327.2,115.9v-4.2c-1.7,1.6-3.5,2.9-5.6,3.7c-2,0.8-4.2,1.3-6.5,1.3c-5.4,0-9.9-1.7-13.5-5.1
		c-3.6-3.4-5.4-7.7-5.4-12.9c0-2.4,0.4-4.7,1.3-6.8c0.9-2.2,2.2-4.1,3.8-5.7c1.8-1.8,3.8-3.1,6-4c2.2-0.9,4.6-1.3,7.4-1.3
		c2.5,0,4.7,0.4,6.8,1.2c2.1,0.8,4,2.1,5.7,3.8v-4.1h6.6v34.2H327.2z M302.9,98.6c0,3.5,1.2,6.4,3.6,8.7c2.4,2.3,5.4,3.5,8.9,3.5
		c3.2,0,6-1.2,8.4-3.5c2.4-2.4,3.7-5.1,3.7-8.3c0-3.4-1.2-6.2-3.6-8.6c-2.4-2.4-5.3-3.6-8.6-3.6c-3.4,0-6.3,1.1-8.7,3.4
		C304.1,92.5,302.9,95.3,302.9,98.6z"/>
</g>
<path class="st2" d="M321.1,144.4H119.4c-15.3,0-27.7-12.4-27.7-27.7V79.5c0-15.3,12.4-27.7,27.7-27.7h201.8
	c15.3,0,27.7,12.4,27.7,27.7v37.2C348.9,132,336.5,144.4,321.1,144.4z"/>
</svg>
