<?xml version="1.0" encoding="utf-8"?>
<!-- Generator: Adobe Illustrator 23.0.6, SVG Export Plug-In . SVG Version: 6.00 Build 0)  -->
<svg version="1.1" id="Layer_1" xmlns="http://www.w3.org/2000/svg" xmlns:xlink="http://www.w3.org/1999/xlink" x="0px" y="0px"
	 viewBox="0 0 532.9 229.9" style="enable-background:new 0 0 532.9 229.9;" xml:space="preserve">
<style type="text/css">
	.st0{fill:#DB5027;}
	.st1{fill:none;stroke:#DB5027;stroke-width:7;stroke-miterlimit:10;}
</style>
<g>
	<path class="st0" d="M20.8,209.5h9c5.3,0,8.5,2.8,8.5,6.9v0.1c0,4.7-4,7.1-8.9,7.1h-3.7v6h-4.9V209.5z M29.6,219.6
		c2.4,0,3.9-1.3,3.9-3v-0.1c0-2-1.5-3-3.9-3h-3.8v6.1H29.6z"/>
	<path class="st0" d="M41.9,209.5H52c2.8,0,5,0.7,6.4,2c1.2,1.1,1.9,2.7,1.9,4.6v0.1c0,3.2-1.9,5.3-4.7,6.2l5.4,7.2h-5.7l-4.7-6.4
		h-0.1h-3.8v6.4h-4.9L41.9,209.5L41.9,209.5z M51.7,219.3c2.4,0,3.7-1.1,3.7-2.8v-0.1c0-1.9-1.5-2.9-3.8-2.9h-4.8v5.8H51.7z"/>
	<path class="st0" d="M64.8,209.5h16.7v3.9H69.7v4.1h10.4v3.9H69.7v4.2h12v3.9H64.9L64.8,209.5L64.8,209.5z"/>
	<path class="st0" d="M85.9,209.5h5.2l5.8,8.5l5.8-8.5h5.2v20.1h-4.8v-13.1l-6.2,8.6h-0.1l-6.2-8.5v13h-4.8L85.9,209.5L85.9,209.5z"
		/>
	<path class="st0" d="M113.6,209.5h4.9v20.1h-4.9V209.5z"/>
	<path class="st0" d="M123.6,221v-11.5h4.9v11.4c0,3.3,1.8,5,4.8,5s4.8-1.6,4.8-4.8v-11.6h4.9v11.3c0,6.1-3.8,9.1-9.7,9.1
		C127.3,229.9,123.6,226.9,123.6,221z"/>
	<path class="st0" d="M147.9,209.5h5.2l5.8,8.5l5.8-8.5h5.2v20.1h-4.8v-13.1l-6.2,8.6h-0.1l-6.2-8.5v13h-4.8v-20.1H147.9z"/>
	<path class="st0" d="M183.2,226.7l2.9-3.1c2,1.5,4.1,2.4,6.6,2.4c2,0,3.2-0.7,3.2-1.9V224c0-1.1-0.8-1.7-4.5-2.6
		c-4.5-1-7.3-2.2-7.3-6.1v-0.1c0-3.6,3.2-6.1,7.7-6.1c3.2,0,6,0.9,8.2,2.6l-2.5,3.3c-2-1.2-3.9-2-5.7-2s-2.8,0.8-2.8,1.8v0.1
		c0,1.3,0.9,1.8,4.8,2.6c4.5,1.1,7,2.5,7,6v0.1c0,4-3.3,6.2-8.1,6.2C189.3,229.9,185.9,228.8,183.2,226.7z"/>
	<path class="st0" d="M205,209.5h9c5.3,0,8.5,2.8,8.5,6.9v0.1c0,4.7-4,7.1-8.9,7.1h-3.7v6H205V209.5z M213.7,219.6
		c2.4,0,3.9-1.3,3.9-3v-0.1c0-2-1.5-3-3.9-3h-3.8v6.1H213.7z"/>
	<path class="st0" d="M226.3,209.5h4.9v20.1h-4.9V209.5z"/>
	<path class="st0" d="M236.7,209.5h4.9v8.8l9-8.8h5.9l-9,8.5l9.4,11.6h-5.8l-6.9-8.6l-2.6,2.4v6.1h-4.9V209.5z"/>
	<path class="st0" d="M259.8,209.5h16.7v3.9h-11.8v4.1h10.4v3.9h-10.4v4.2h12v3.9h-16.8v-20L259.8,209.5L259.8,209.5z"/>
	<path class="st0" d="M280.9,209.5h8.6c6.9,0,11.8,4.3,11.8,10v0.1c0,5.7-4.8,10.1-11.8,10.1h-8.6V209.5z M289.5,225.6
		c4,0,6.7-2.4,6.7-6v-0.1c0-3.6-2.7-6.1-6.7-6.1h-3.8v12.1h3.8V225.6z"/>
	<path class="st0" d="M315.1,209.5h10.1c2.8,0,5,0.7,6.4,2c1.2,1.1,1.9,2.7,1.9,4.6v0.1c0,3.2-1.9,5.3-4.7,6.2l5.4,7.2h-5.7
		l-4.7-6.4h-0.1h-3.8v6.4H315v-20.1H315.1z M324.9,219.3c2.4,0,3.7-1.1,3.7-2.8v-0.1c0-1.9-1.5-2.9-3.8-2.9H320v5.8H324.9z"/>
	<path class="st0" d="M337.9,209.5h16.7v3.9h-11.8v4.1h10.4v3.9h-10.4v4.2h12v3.9H338v-20L337.9,209.5L337.9,209.5z"/>
	<path class="st0" d="M359.1,209.5h16.8v4h-12v4.3h10.6v4H364v7.8h-4.9V209.5z"/>
	<path class="st0" d="M379.8,209.5h10.1c2.8,0,5,0.7,6.4,2c1.2,1.1,1.9,2.7,1.9,4.6v0.1c0,3.2-1.9,5.3-4.7,6.2l5.4,7.2h-5.7
		l-4.7-6.4l0,0h-3.8v6.4h-4.9L379.8,209.5L379.8,209.5z M389.6,219.3c2.4,0,3.7-1.1,3.7-2.8v-0.1c0-1.9-1.5-2.9-3.8-2.9h-4.8v5.8
		H389.6z"/>
	<path class="st0" d="M402.7,209.5h16.7v3.9h-11.9v4.1h10.4v3.9h-10.4v4.2h12v3.9h-16.8L402.7,209.5L402.7,209.5z"/>
	<path class="st0" d="M422.3,226.7l2.9-3.1c2,1.5,4.1,2.4,6.6,2.4c2,0,3.2-0.7,3.2-1.9V224c0-1.1-0.8-1.7-4.5-2.6
		c-4.5-1-7.3-2.2-7.3-6.1v-0.1c0-3.6,3.2-6.1,7.7-6.1c3.2,0,6,0.9,8.2,2.6l-2.5,3.3c-2-1.2-3.9-2-5.7-2s-2.8,0.8-2.8,1.8v0.1
		c0,1.3,0.9,1.8,4.8,2.6c4.5,1.1,7,2.5,7,6v0.1c0,4-3.3,6.2-8.1,6.2C428.4,229.9,425,228.8,422.3,226.7z"/>
	<path class="st0" d="M444.1,209.5h4.9v8h9v-8h4.9v20.1H458v-8.1h-9v8.1h-4.9V209.5z"/>
	<path class="st0" d="M468.1,209.5h16.7v3.9H473v4.1h10.4v3.9H473v4.2h12v3.9h-16.8v-20L468.1,209.5L468.1,209.5z"/>
	<path class="st0" d="M489.2,209.5h10.1c2.8,0,5,0.7,6.4,2c1.2,1.1,1.9,2.7,1.9,4.6v0.1c0,3.2-1.9,5.3-4.7,6.2l5.4,7.2h-5.7
		l-4.7-6.4h-0.1H494v6.4h-4.9L489.2,209.5L489.2,209.5z M499,219.3c2.4,0,3.7-1.1,3.7-2.8v-0.1c0-1.9-1.5-2.9-3.8-2.9h-4.8v5.8H499z
		"/>
</g>
<path id="XMLID_384_" class="st0" d="M371,79c-2.1,0-3.8,1.7-3.8,3.9c0,2.1,1.7,3.9,3.8,3.9c2.1,0,3.8-1.7,3.8-3.9
	C374.8,80.7,373.1,79,371,79z M371,86.3c-1.8,0-3.3-1.5-3.3-3.4s1.5-3.4,3.3-3.4s3.3,1.5,3.3,3.4S372.8,86.3,371,86.3z"/>
<path id="XMLID_381_" class="st0" d="M372.9,81.9c0-0.4-0.2-0.7-0.5-0.9c-0.3-0.2-0.7-0.2-1-0.2h-1.8v4.3h0.5v-2h0.9l1.2,2h0.6
	l-1.3-2C372.4,83,372.9,82.7,372.9,81.9z M370.9,82.6h-0.8v-1.5h1.2c0.5,0,1.1,0.1,1.1,0.8C372.4,82.7,371.5,82.6,370.9,82.6z"/>
<g>
	<polygon class="st0" points="71.2,97 76.9,105.7 76.9,186.1 71.2,194.8 126.3,194.8 126.3,171 117.2,176.5 95.9,176.5 95.9,151.9 
		107.8,151.9 116.8,155.7 116.8,132.3 107.8,136.1 95.9,136.1 95.9,114.6 117.2,114.6 126.3,120.1 126.3,97 	"/>
	<polygon class="st0" points="136,97 141.7,105.7 141.7,186.1 136,194.8 166.5,194.8 160.8,186.1 160.8,154.3 173.1,154.3 
		182.2,158 182.2,133.6 173.1,137.4 160.8,137.4 160.8,114 181.1,114 190.2,119.5 190.2,97 	"/>
	<path class="st0" d="M527.3,186.2l-17.4-82.7l4.3-6.6h-32.6l4.3,6.5l-17.5,82.7l-5.7,8.7H490l-4.4-6.7l2.4-12.7h18.4l2.4,12.7
		l-4.4,6.7h28.5L527.3,186.2z M490.9,159.9l6.8-35.7l6.3,35.7H490.9z"/>
	<path class="st0" d="M439.3,159.3l3.9,8.7v0.4c0,6.8-3.6,11.2-10.6,11.2S422,175,422,168.9v-45.7c0-6.3,3.6-10.9,10.6-10.9
		c7.1,0,10.6,4.4,10.6,11.2v0.4l-3.9,8.7h24.8l-3.9-8.7V123c0-16.3-9.4-28.5-27.9-28.5c-18.8,0-29.7,13.4-29.7,30.3v42.3
		c0,16.9,10.9,30.3,29.7,30.3c18.5,0,27.9-12.2,27.9-28.5V168l3.9-8.7H439.3L439.3,159.3z"/>
	<path class="st0" d="M370.7,138.3c-11.3-6.5-16.4-10.3-16.4-17.2c0-5.9,3.6-9.7,9.2-9.7c5.1,0,8.2,3,9.4,7.4l-3.3,7.4h24.6
		l-3.9-8.7c-2-13.2-12.1-22.9-26.6-22.9c-18.1,0-27.8,13.5-27.8,28.5s11.3,22.8,21.9,29.1c10.2,5.9,15.3,10.1,15.3,17.2
		c0,6.8-3.3,11-10.1,11c-5.5,0-9-2.8-10.2-8.2l3.5-7.7h-25l3.9,8.7l0,0c1.5,14.7,12.1,24.1,28.3,24.1c17.7,0,28.3-13.8,28.3-29.7
		C391.7,153.4,383,145.7,370.7,138.3z"/>
	<path class="st0" d="M63.2,186.2l-12.3-33.7c6.2-3.9,9.7-10.8,9.7-19.8v-12.5c0-14.1-8.6-23.2-23-23.2H0l5.7,8.7v80.4L0,194.8h30.4
		l-5.7-8.7v-30.2h7.6l12.2,33.3l-3.7,5.6h28.1L63.2,186.2z M42.3,131.5c0,4.8-1.9,7.9-6.8,7.9H24.7v-26h10.8c4.9,0,6.8,3.1,6.8,7.9
		V131.5z"/>
	<polygon class="st0" points="268.9,97 274.6,105.7 274.6,186.1 268.9,194.8 323.9,194.8 323.9,171 314.9,176.5 293.6,176.5 
		293.6,151.9 305.5,151.9 314.5,155.7 314.5,132.3 305.4,136.1 293.6,136.1 293.6,114.6 314.9,114.6 323.9,120.1 323.9,97 	"/>
	<path class="st0" d="M260.8,186.2l-12.3-33.7c6.2-3.9,9.7-10.8,9.7-19.8v-12.5c0-14.1-8.6-23.2-23-23.2h-37.6l5.7,8.7v80.4
		l-5.7,8.7H228l-5.7-8.7v-30.2h7.6l12.1,33.3l-3.7,5.6h28.2L260.8,186.2z M239.9,131.5c0,4.8-1.9,7.9-6.8,7.9h-10.8v-26h10.8
		c4.9,0,6.8,3.1,6.8,7.9V131.5z"/>
</g>
<g>
	<path class="st0" d="M223.7,50.2c-1.6,3-3.7,5.2-6.4,6.8c-2.7,1.6-5.9,2.4-9.5,2.4c-2.7,0-5.2-0.5-7.4-1.5c-2.3-1-4.3-2.4-6.1-4.4
		c-1.5-1.6-2.7-3.4-3.5-5.5c-0.8-2-1.2-4.2-1.2-6.5c0-2.4,0.5-4.6,1.4-6.7c0.9-2.1,2.3-4,4.2-5.8c1.7-1.6,3.7-2.8,5.8-3.7
		c2.1-0.8,4.4-1.2,6.8-1.2c3.7,0,6.9,0.8,9.7,2.5c2.8,1.6,4.9,4,6.3,7h-6.1c-1.1-1.5-2.6-2.6-4.2-3.4c-1.7-0.8-3.6-1.1-5.7-1.1
		c-1.7,0-3.3,0.3-4.8,0.9s-2.9,1.5-4,2.6c-1.2,1.2-2.2,2.6-2.9,4.2c-0.7,1.6-1,3.2-1,4.8c0,1.8,0.3,3.4,0.9,5
		c0.6,1.6,1.5,2.9,2.7,4.1c1.2,1.2,2.6,2.1,4.2,2.8c1.6,0.7,3.2,1,4.9,1c2,0,3.9-0.4,5.5-1.1c1.6-0.7,3-1.8,4.1-3.2H223.7z"/>
	<path class="st0" d="M227.1,46c0-1.8,0.3-3.5,1-5.1c0.6-1.6,1.6-3,2.9-4.2c1.4-1.4,2.9-2.4,4.6-3.2c1.7-0.7,3.5-1.1,5.3-1.1
		c2,0,3.8,0.3,5.5,1c1.7,0.7,3.2,1.7,4.6,3c1.3,1.3,2.3,2.7,3.1,4.4c0.7,1.6,1.1,3.3,1.1,5c0,1.8-0.3,3.5-1,5.1
		c-0.7,1.7-1.6,3.1-2.8,4.4c-1.4,1.4-2.9,2.5-4.6,3.2c-1.7,0.7-3.5,1.1-5.5,1.1c-2,0-3.8-0.3-5.5-1c-1.7-0.7-3.2-1.7-4.5-3
		c-1.3-1.3-2.2-2.7-3-4.4C227.5,49.4,227.1,47.7,227.1,46z M232.2,45.9c0,2.6,0.9,4.7,2.6,6.4c1.7,1.7,3.8,2.6,6.4,2.6
		c2.5,0,4.6-0.9,6.3-2.6c1.7-1.7,2.5-3.9,2.5-6.4c0-2.6-0.8-4.7-2.5-6.4c-1.7-1.7-3.8-2.5-6.3-2.5c-2.5,0-4.6,0.9-6.3,2.6
		C233,41.2,232.2,43.3,232.2,45.9z"/>
	<path class="st0" d="M264,58.7h-4.9V33.1h4.6v3c0.8-1.1,1.7-2,2.8-2.5c1-0.6,2.2-0.8,3.6-0.8v4.8c-2.2,0.2-3.7,0.8-4.7,1.8
		c-0.9,1.1-1.4,2.8-1.4,5.1V58.7z"/>
	<path class="st0" d="M272.1,46c0-1.8,0.3-3.5,1-5.1c0.6-1.6,1.6-3,2.9-4.2c1.4-1.4,2.9-2.4,4.6-3.2c1.7-0.7,3.5-1.1,5.3-1.1
		c2,0,3.8,0.3,5.5,1c1.7,0.7,3.2,1.7,4.6,3c1.3,1.3,2.3,2.7,3.1,4.4c0.7,1.6,1.1,3.3,1.1,5c0,1.8-0.3,3.5-1,5.1
		c-0.7,1.7-1.6,3.1-2.8,4.4c-1.4,1.4-2.9,2.5-4.6,3.2c-1.7,0.7-3.5,1.1-5.5,1.1c-2,0-3.8-0.3-5.5-1c-1.7-0.7-3.2-1.7-4.5-3
		c-1.3-1.3-2.2-2.7-3-4.4C272.5,49.4,272.1,47.7,272.1,46z M277.1,45.9c0,2.6,0.9,4.7,2.6,6.4c1.7,1.7,3.8,2.6,6.4,2.6
		c2.5,0,4.6-0.9,6.3-2.6c1.7-1.7,2.5-3.9,2.5-6.4c0-2.6-0.8-4.7-2.5-6.4c-1.7-1.7-3.8-2.5-6.3-2.5c-2.5,0-4.6,0.9-6.3,2.6
		C278,41.2,277.1,43.3,277.1,45.9z"/>
	<path class="st0" d="M309,58.7h-4.9V33.1h4.7V36c1-1.1,2.1-2,3.3-2.5c1.2-0.5,2.6-0.8,4.2-0.8c3.5,0,6.2,1,8.1,3
		c1.9,2,2.8,4.8,2.8,8.5v14.6h-4.9V45.1c0-2.7-0.5-4.7-1.6-6c-1.1-1.3-2.7-2-4.9-2c-2.4,0-4.2,0.8-5.3,2.3c-1.1,1.5-1.6,4.1-1.6,7.6
		V58.7z"/>
	<path class="st0" d="M354.8,58.7v-3.1c-1.2,1.2-2.6,2.2-4.2,2.8c-1.5,0.6-3.2,0.9-4.9,0.9c-4.1,0-7.4-1.3-10.1-3.9
		c-2.7-2.6-4-5.8-4-9.6c0-1.8,0.3-3.5,1-5.1c0.7-1.6,1.6-3,2.9-4.3c1.4-1.3,2.8-2.3,4.5-3c1.6-0.6,3.4-1,5.5-1
		c1.8,0,3.5,0.3,5.1,0.9c1.6,0.6,3,1.6,4.2,2.8v-3.1h4.9v25.6H354.8z M336.6,45.8c0,2.6,0.9,4.8,2.7,6.5c1.8,1.8,4,2.6,6.6,2.6
		c2.4,0,4.5-0.9,6.3-2.6c1.8-1.8,2.7-3.8,2.7-6.2c0-2.5-0.9-4.7-2.7-6.5c-1.8-1.8-4-2.7-6.4-2.7c-2.6,0-4.7,0.9-6.5,2.6
		C337.5,41.2,336.6,43.3,336.6,45.8z"/>
</g>
<path class="st1" d="M355.4,80.1H194.2c-8.7,0-15.7-7-15.7-15.7v-38c0-8.7,7-15.7,15.7-15.7h161.1c8.7,0,15.7,7,15.7,15.7v38
	C371,73,364,80.1,355.4,80.1z"/>
</svg>
