<?xml version="1.0" encoding="utf-8"?>
<!-- Generator: Adobe Illustrator 23.0.6, SVG Export Plug-In . SVG Version: 6.00 Build 0)  -->
<svg version="1.1" id="Layer_1" xmlns="http://www.w3.org/2000/svg" xmlns:xlink="http://www.w3.org/1999/xlink" x="0px" y="0px"
	 viewBox="0 0 428.9 248.2" style="enable-background:new 0 0 428.9 248.2;" xml:space="preserve">
<style type="text/css">
	.st0{fill:#DB5027;}
	.st1{fill:none;stroke:#DB5027;stroke-width:10;stroke-miterlimit:10;}
</style>
<g>
	<path class="st0" d="M102.2,97.4c-3.4,6.8-8.1,12.1-14.1,15.7c-6,3.6-12.9,5.4-20.8,5.4c-5.9,0-11.3-1.1-16.2-3.4
		c-4.9-2.3-9.4-5.6-13.3-10c-3.3-3.7-5.8-7.9-7.6-12.6c-1.7-4.7-2.6-9.7-2.6-15.1c0-5.4,1-10.6,3.1-15.5c2.1-4.9,5.1-9.3,9.1-13.3
		c3.8-3.7,8-6.5,12.6-8.4c4.6-1.9,9.6-2.9,14.9-2.9c8,0,15,1.9,21.1,5.7c6.1,3.8,10.6,9.1,13.7,16.1H88.9c-2.5-3.5-5.6-6.1-9.2-7.8
		c-3.6-1.8-7.8-2.6-12.4-2.6c-3.7,0-7.2,0.7-10.5,2.1c-3.3,1.4-6.3,3.4-8.8,6.1c-2.7,2.8-4.8,5.9-6.3,9.6c-1.5,3.6-2.3,7.4-2.3,11.1
		c0,4.1,0.7,7.9,2,11.6c1.4,3.6,3.3,6.8,5.8,9.4c2.7,2.8,5.8,4.9,9.3,6.5c3.5,1.5,7.1,2.3,10.7,2.3c4.5,0,8.5-0.8,12.1-2.5
		c3.6-1.7,6.5-4.2,8.9-7.4H102.2z"/>
	<path class="st0" d="M109.8,87.5c0-4.2,0.7-8.1,2.1-11.7c1.4-3.6,3.5-6.9,6.2-9.8c3-3.2,6.3-5.6,10-7.3c3.7-1.7,7.6-2.6,11.6-2.6
		c4.3,0,8.3,0.8,11.9,2.3c3.7,1.5,7,3.8,9.9,6.8c2.9,3,5.1,6.3,6.7,10c1.6,3.7,2.3,7.6,2.3,11.5c0,4-0.7,8-2.2,11.8
		c-1.4,3.8-3.5,7.2-6.1,10c-3,3.3-6.4,5.8-10.1,7.5c-3.7,1.7-7.7,2.5-11.9,2.5c-4.3,0-8.3-0.8-12-2.3c-3.6-1.6-6.9-3.9-9.8-6.9
		c-2.8-2.9-4.9-6.3-6.5-10.1C110.6,95.5,109.8,91.5,109.8,87.5z M120.8,87.4c0,5.9,1.9,10.8,5.6,14.7c3.7,3.9,8.4,5.9,14,5.9
		c5.5,0,10.1-2,13.7-5.9c3.7-3.9,5.5-8.9,5.5-14.8c0-6-1.8-10.9-5.5-14.8c-3.7-3.9-8.3-5.8-13.9-5.8c-5.5,0-10.1,2-13.9,5.9
		C122.6,76.5,120.8,81.5,120.8,87.4z"/>
	<path class="st0" d="M190.5,117h-10.6V58h10v6.8c1.8-2.6,3.8-4.5,6-5.8c2.3-1.3,4.9-1.9,7.9-2v11.1c-4.8,0.4-8.2,1.8-10.2,4.2
		c-2.1,2.4-3.1,6.4-3.1,11.8V117z"/>
	<path class="st0" d="M208,87.5c0-4.2,0.7-8.1,2.1-11.7c1.4-3.6,3.5-6.9,6.2-9.8c3-3.2,6.3-5.6,10-7.3c3.7-1.7,7.6-2.6,11.6-2.6
		c4.3,0,8.3,0.8,11.9,2.3c3.7,1.5,7,3.8,9.9,6.8c2.9,3,5.1,6.3,6.7,10c1.6,3.7,2.3,7.6,2.3,11.5c0,4-0.7,8-2.2,11.8
		c-1.4,3.8-3.5,7.2-6.1,10c-3,3.3-6.4,5.8-10.1,7.5c-3.7,1.7-7.7,2.5-11.9,2.5c-4.3,0-8.3-0.8-12-2.3c-3.6-1.6-6.9-3.9-9.8-6.9
		c-2.8-2.9-4.9-6.3-6.5-10.1C208.8,95.5,208,91.5,208,87.5z M219,87.4c0,5.9,1.9,10.8,5.6,14.7c3.7,3.9,8.4,5.9,14,5.9
		c5.5,0,10-2,13.7-5.9c3.7-3.9,5.5-8.9,5.5-14.8c0-6-1.8-10.9-5.5-14.8c-3.7-3.9-8.3-5.8-13.9-5.8c-5.5,0-10.1,2-13.9,5.9
		C220.9,76.5,219,81.5,219,87.4z"/>
	<path class="st0" d="M288.6,117H278V58h10.2v6.7c2.2-2.6,4.7-4.6,7.3-5.8c2.7-1.2,5.7-1.8,9.1-1.8c7.7,0,13.6,2.3,17.8,6.8
		c4.1,4.5,6.2,11,6.2,19.5V117h-10.7V85.7c0-6.3-1.2-10.9-3.5-13.9c-2.3-3-5.9-4.5-10.8-4.5c-5.3,0-9.1,1.8-11.5,5.3
		c-2.4,3.6-3.6,9.4-3.6,17.6V117z"/>
	<path class="st0" d="M388.7,117v-7.2c-2.7,2.8-5.7,5-9.1,6.4c-3.3,1.4-6.9,2.2-10.7,2.2c-8.9,0-16.2-3-22.1-8.9
		c-5.9-5.9-8.8-13.3-8.8-22.2c0-4.1,0.7-8.1,2.2-11.8c1.5-3.7,3.6-7,6.3-9.8c3-3.1,6.2-5.4,9.7-6.9c3.5-1.5,7.5-2.2,12-2.2
		c4,0,7.8,0.7,11.1,2.1c3.4,1.4,6.5,3.6,9.3,6.5V58h10.7v59H388.7z M349,87.1c0,6,2,11,5.9,15c3.9,4,8.8,6.1,14.5,6.1
		c5.2,0,9.8-2,13.8-6.1c4-4.1,6-8.8,6-14.2c0-5.8-2-10.7-5.9-14.9c-3.9-4.1-8.6-6.2-14.1-6.2c-5.6,0-10.3,2-14.3,5.9
		C351,76.6,349,81.4,349,87.1z"/>
</g>
<g>
	<path class="st0" d="M167,182.8h-26.8v-51.5H167v6.9h-19.3v15.4H167v6.7h-19.3v15.4H167V182.8z"/>
	<path class="st0" d="M197,182.8l-9-14.7l-9.4,14.7h-7.8l13.2-20.2l-11.6-18.7h7.8l8.1,13.3l8.3-13.3h8.1l-12.3,18.5l12.5,20.5H197z
		"/>
	<path class="st0" d="M211.2,182.8v-32.6h-5.5v-6.4h5.5v-12.6h7v12.6h5.5v6.4h-5.5v32.6H211.2z"/>
	<path class="st0" d="M235.8,182.8h-7v-38.9h6.6v4.5c1.2-1.7,2.5-3,4-3.8c1.5-0.8,3.2-1.3,5.2-1.3v7.3c-3.1,0.2-5.4,1.2-6.7,2.8
		c-1.4,1.6-2,4.2-2,7.8V182.8z"/>
	<path class="st0" d="M281.1,182.8V178c-1.8,1.9-3.8,3.3-6,4.2c-2.2,1-4.6,1.4-7.1,1.4c-5.9,0-10.7-2-14.6-5.9
		c-3.9-3.9-5.8-8.8-5.8-14.7c0-2.7,0.5-5.3,1.5-7.8c1-2.5,2.3-4.6,4.1-6.5c2-2.1,4.1-3.6,6.4-4.5c2.3-1,5-1.5,7.9-1.5
		c2.7,0,5.1,0.5,7.4,1.4c2.2,0.9,4.3,2.4,6.1,4.3v-4.7h7.1v38.9H281.1z M254.9,163.1c0,3.9,1.3,7.2,3.9,9.9c2.6,2.7,5.8,4,9.6,4
		c3.4,0,6.5-1.3,9.1-4c2.6-2.7,3.9-5.8,3.9-9.4c0-3.8-1.3-7.1-3.9-9.8c-2.6-2.7-5.7-4.1-9.3-4.1c-3.7,0-6.8,1.3-9.4,3.9
		C256.3,156.2,254.9,159.3,254.9,163.1z"/>
</g>
<path class="st1" d="M371.5,210.6H58.8c-27.4,0-49.5-22.2-49.5-49.5V59.4c0-27.4,22.2-49.5,49.5-49.5h312.7
	c27.4,0,49.5,22.2,49.5,49.5v101.6C421,188.4,398.8,210.6,371.5,210.6z"/>
</svg>
