<?xml version="1.0" encoding="utf-8"?>
<!-- Generator: Adobe Illustrator 23.0.6, SVG Export Plug-In . SVG Version: 6.00 Build 0)  -->
<svg version="1.1" id="Logo" xmlns="http://www.w3.org/2000/svg" xmlns:xlink="http://www.w3.org/1999/xlink" x="0px" y="0px"
	 viewBox="0 0 436.7 223.6" style="enable-background:new 0 0 436.7 223.6;" xml:space="preserve">
<style type="text/css">
	.st0{fill-rule:evenodd;clip-rule:evenodd;fill:#DB5027;}
	.st1{fill:#DB5027;}
	.st2{fill:none;stroke:#DB5027;stroke-width:10;stroke-miterlimit:10;}
</style>
<title>logo-corona-premier-stacked</title>
<g id="_Group_">
	<path class="st0" d="M267,139c1.5,0,2.8,1.2,2.8,2.8c0,1.5-1.2,2.8-2.8,2.8c-1.5,0-2.8-1.2-2.8-2.8S265.5,139,267,139L267,139z"/>
</g>
<g id="_Group_2">
	<path class="st0" d="M239.6,139c1.5,0,2.8,1.3,2.8,2.8s-1.3,2.8-2.8,2.8s-2.8-1.3-2.8-2.8C236.8,140.2,238,139,239.6,139z"/>
</g>
<g id="_Group_3">
	<path class="st0" d="M212.1,139c1.5,0,2.8,1.3,2.8,2.8s-1.3,2.8-2.8,2.8s-2.8-1.3-2.8-2.8C209.3,140.2,210.6,139,212.1,139z"/>
</g>
<g id="_Group_4">
	<path class="st0" d="M184.6,139c1.5,0,2.8,1.2,2.8,2.8s-1.2,2.8-2.8,2.8s-2.8-1.2-2.8-2.8l0,0C181.9,140.2,183.1,139,184.6,139z"/>
</g>
<g id="_Group_5">
	<path class="st0" d="M157.2,139c1.5,0,2.8,1.2,2.8,2.8s-1.2,2.8-2.8,2.8s-2.8-1.2-2.8-2.8l0,0C154.4,140.3,155.6,139,157.2,139z"/>
</g>
<path class="st1" d="M43.2,176.1c0,12.5-10.2,18.7-23,18.8c-1.6,0-3.1-0.1-4.7-0.4v-0.9c12.2-0.8,18.3-6.6,18.3-17.1
	c0-11.1-7-15.7-17.8-15.7h-4.1V209c0,5.8,1.1,8.1,3.6,9.3v0.8H0v-0.8c2.5-1.2,3.6-3.4,3.6-9.3v-40.4c0-5.8-1.2-8.1-3.6-9.3v-0.8
	h18.9C34.6,158.4,43.2,165.1,43.2,176.1z M74.9,191.3v-0.8C87,189.7,93,183.8,93,174.9S87.1,161,76.1,161h-4.2v48.1
	c0,5.8,1.1,8.1,3.6,9.3v0.8H59.9v-0.8c2.5-1.2,3.6-3.4,3.6-9.3v-40.4c0-5.8-1.2-8.1-3.6-9.3v-0.8h18.9c15.6,0,23.5,6.1,23.5,15.9
	c0,10.1-8.4,15.2-18,16.4l8.2,9.7c10.1,12,13.4,14.9,17.4,16.6l-0.1,0.8c-1.3,1.3-3,2.1-5.8,2.1c-5.5,0-8.9-3-17.1-13.2
	C82.9,201.8,79.1,196.6,74.9,191.3L74.9,191.3z M165.7,204.7V219h-42.2v-0.8c2.4-1.2,3.6-3.4,3.6-9.3v-40.4c0-5.8-1.2-8.1-3.6-9.3
	v-0.8h40.7v12.9h-1c-2.8-7.4-7.1-10.5-16.6-10.5h-11.1v26.5l9.3-0.4c5.7-0.3,8.1-3,9.5-8.3h0.9v18.7h-0.9c-1.5-5.3-4-7.6-9.7-7.9
	l-9.2-0.4v21c0,4.7,2.1,6.6,7.2,6.6h5.9c10.1,0,13.8-3.2,16.1-12L165.7,204.7z M183.4,158.5h12.3l23.7,50.4l20-50.4h12v0.8
	c-2.6,1.2-3.6,3.4-3.6,9.3V209c0,5.8,1.1,8.1,3.6,9.3v0.8h-15.6v-0.8c2.5-1.2,3.6-3.4,3.6-9.3v-42l-22.3,53h-1.7l-24.3-51.2
	l0.7,34.5c0.2,9.3,2.7,13.4,5.8,15v0.8h-14.9v-0.8c3.1-1.5,5.7-6,5.8-15l0.3-29.3c0.2-9.6-1.9-12.8-5.5-14.6L183.4,158.5
	L183.4,158.5z M287.5,218.2v0.8H272v-0.8c2.4-1.2,3.6-3.4,3.6-9.3v-40.4c0-5.8-1.2-8.1-3.6-9.3v-0.8h15.5v0.8
	c-2.5,1.2-3.6,3.4-3.6,9.3v40.4C284,214.8,285,217,287.5,218.2z M350.3,204.7V219h-42.2v-0.8c2.4-1.2,3.6-3.4,3.6-9.3v-40.4
	c0-5.8-1.2-8.1-3.6-9.3v-0.8h40.7v12.9h-1c-2.8-7.4-7.1-10.5-16.6-10.5h-11.1v26.5l9.3-0.4c5.7-0.3,8.1-3,9.5-8.3h0.9v18.7h-0.9
	c-1.5-5.3-4-7.6-9.7-7.9L320,189v21c0,4.7,2.1,6.6,7.2,6.6h5.9c10.1,0,13.8-3.2,16.1-12L350.3,204.7z M381.8,191.2v-0.8
	c12.1-0.8,18.1-6.7,18.1-15.6s-5.9-13.9-16.9-13.9h-4.2V209c0,5.8,1.1,8.1,3.6,9.3v0.8h-15.6v-0.8c2.5-1.2,3.6-3.4,3.6-9.3v-40.4
	c0-5.8-1.2-8.1-3.6-9.3v-0.8h18.9c15.6,0,23.5,6.1,23.5,15.9c0,10.1-8.4,15.2-18,16.4l8.2,9.7c10.1,12,13.4,14.9,17.4,16.6l-0.1,0.8
	c-1.3,1.3-3,2.1-5.8,2.1c-5.5,0-8.9-3-17.1-13.2C389.8,201.8,385.9,196.6,381.8,191.2z"/>
<path class="st1" d="M15.6,196.9v15.7c0,1,0,2,0.1,3.1c-0.8-0.7-1.5-2.2-1.5-6.7v-12.3l0.9,0.2H15.6z M139,213.7L139,213.7v-21.1
	l9.2,0.4c0.4,0,0.8,0.1,1.2,0.1c-1.5-1-3.2-1.5-5-1.5l-6.8-0.3V210C137.7,211.9,137.9,213.1,139,213.7z M157.9,201h0.9v-18.7h-0.9
	c-0.1,0.5-0.3,1-0.5,1.5v15.8C157.6,200,157.8,200.5,157.9,201z M194.2,203.1c0.1,4.6,0.8,8.1,2,10.4c-0.4-2.2-0.7-4.4-0.7-6.7
	l-0.5-24.7l-1.4-2.9L194.2,203.1z M75.7,215.7c-0.1-0.9-0.1-1.9-0.1-3.1v-16.8l-1.4-1.8v15C74.2,213.5,74.9,215,75.7,215.7z
	 M137.6,163.1V185l1.4-0.1v-20.4h11.1c1.8,0,3.7,0.1,5.5,0.5c-2.2-1.3-5.1-1.8-9.1-1.8L137.6,163.1z M382.5,215.7
	c-0.1-0.9-0.1-1.9-0.1-3.1v-16.8L381,194v15C381,213.5,381.7,215,382.5,215.7L382.5,215.7z M392.3,165c-2.9-1.4-6.1-2-9.3-1.9h-2
	v25.1h0.6l0.7-0.1v-23.6h4.2C388.5,164.5,390.4,164.6,392.3,165z M342.6,201h0.9v-18.7h-0.9c-0.1,0.5-0.3,1-0.5,1.5v15.8
	C342.3,200,342.4,200.5,342.6,201z M323.7,213.7L323.7,213.7v-21.1l9.2,0.4c0.4,0,0.8,0.1,1.2,0.1c-1.5-1-3.2-1.5-5-1.5l-6.8-0.3
	V210C322.3,211.9,322.6,213.1,323.7,213.7L323.7,213.7z M322.3,163.2V185l1.4-0.1v-20.4h11.1c1.8,0,3.7,0.1,5.5,0.5
	c-2.2-1.3-5.1-1.8-9.1-1.8H322.3z M85.4,165c-2.9-1.4-6.1-2-9.3-1.9h-1.9v25.1h0.6l0.7-0.1v-23.6h4.2
	C81.7,164.5,83.6,164.6,85.4,165z M19.7,164.5c2,0,4,0.2,6,0.6c-3-1.4-6.3-2.1-9.6-1.9h-1.9v28.3l1.2-0.1h0.2v-26.8L19.7,164.5z
	 M352.6,209.3v11.9h-39.9c-0.3,0.2-0.6,0.4-0.9,0.6v0.8H354v-14.2h-1.1C352.8,208.7,352.7,209,352.6,209.3L352.6,209.3z
	 M167.9,209.3v11.9H128c-0.3,0.2-0.6,0.4-0.9,0.6v0.8h42.2v-14.2h-1.1C168.1,208.7,168,209,167.9,209.3L167.9,209.3z M104.6,174.3
	c0,9-5.9,15.5-16,18l0.7,0.8c8.6-1.7,15.7-6.7,15.7-16.1c0-1.3-0.2-2.7-0.5-3.9C104.6,173.6,104.6,174,104.6,174.3L104.6,174.3z
	 M411.5,174.3c0,9-5.9,15.5-16,18l0.7,0.8c8.6-1.7,15.7-6.7,15.7-16.1c0-1.3-0.2-2.7-0.5-3.9C411.5,173.6,411.5,174,411.5,174.3
	L411.5,174.3z M45.5,176.1c0,12.7-9.9,20.9-25.3,21.1c-0.7,0-1.3,0-2-0.1v0.1c1.5,0.3,3.1,0.4,4.7,0.4c12.9-0.1,23-6.3,23-18.8
	c0-1.5-0.2-2.9-0.5-4.4C45.5,175,45.5,175.6,45.5,176.1L45.5,176.1z M237.2,178.1l-18.5,44h-1.4l0.6,1.4h1.7l17.5-41.7L237.2,178.1z
	 M4.6,221.3c-0.3,0.2-0.6,0.4-1,0.6v0.8h15.6v-0.8c-0.3-0.2-0.6-0.3-0.9-0.6H4.6z M64.5,221.3c-0.3,0.2-0.6,0.4-1,0.6v0.8h15.6v-0.8
	c-0.3-0.2-0.6-0.3-0.9-0.6H64.5z M187.4,221.3c-0.3,0.2-0.6,0.4-0.9,0.6v0.8h14.9v-0.8c-0.3-0.2-0.6-0.4-0.9-0.6H187.4z
	 M166.4,161.2v12.9c0.1,0.3,0.3,0.6,0.4,0.9h1v-13.9h-1.4V161.2z M351.1,161.2v12.9c0.1,0.3,0.3,0.6,0.4,0.9h1v-13.9h-1.4V161.2z
	 M240.5,221.3c-0.3,0.2-0.6,0.4-1,0.6v0.8H255v-0.8c-0.3-0.2-0.6-0.3-0.9-0.6H240.5z M276.6,221.3c-0.3,0.2-0.6,0.4-0.9,0.6v0.8
	h15.5v-0.8c-0.3-0.2-0.6-0.3-0.9-0.6H276.6z M371.4,221.3c-0.3,0.2-0.6,0.4-1,0.6v0.8H386v-0.8c-0.3-0.2-0.6-0.3-0.9-0.6H371.4z
	 M251.5,209.7v-40.4c0-4.4,0.6-6.7,1.9-8.1h-0.7l-0.3,0.1c-1.3,0.6-2.3,1.5-2.3,7.2v40.4c0,4.8,0.8,6.2,1.6,6.8
	c-0.2-1.4-0.3-2.7-0.3-4.1L251.5,209.7z M287.6,209.7v-40.4c0-4.4,0.5-6.7,1.9-8.1h-0.7l-0.3,0.1c-1.3,0.6-2.3,1.5-2.3,7.2v40.4
	c0,4.8,0.8,6.2,1.6,6.8c-0.2-1.4-0.3-2.7-0.3-4.1L287.6,209.7L287.6,209.7z M418.4,219.5l-0.1,0.1c-2,1.9-4.7,2.9-7.5,2.7
	c-0.4,0-0.7,0-1.1,0c1.3,0.5,2.6,0.7,4,0.7c2.9,0,4.6-0.8,5.8-2.1l0.1-0.8C419.3,219.9,418.9,219.7,418.4,219.5L418.4,219.5z
	 M111.4,219.6c-2,1.9-4.7,2.9-7.4,2.7c-0.4,0-0.7,0-1.1,0c1.3,0.5,2.6,0.7,4,0.7c2.9,0,4.6-0.8,5.8-2.1l0.1-0.8
	c-0.4-0.2-0.9-0.4-1.3-0.6L111.4,219.6z"/>
<path id="XMLID_384_" class="st1" d="M383.5,133.9c-2.3,0-4.1,1.8-4.1,4.2c0,2.3,1.8,4.2,4.1,4.2c2.3,0,4.1-1.8,4.1-4.2
	C387.6,135.8,385.7,133.9,383.5,133.9z M383.5,141.8c-1.9,0-3.6-1.6-3.6-3.7c0-2.1,1.6-3.7,3.6-3.7s3.6,1.6,3.6,3.7
	C387,140.2,385.4,141.8,383.5,141.8z"/>
<path id="XMLID_381_" class="st1" d="M385.5,137c0-0.4-0.2-0.8-0.5-1c-0.3-0.2-0.8-0.2-1.1-0.2h-1.9v4.6h0.5v-2.2h1l1.3,2.2h0.6
	l-1.4-2.2C385,138.2,385.5,137.9,385.5,137z M383.4,137.8h-0.9v-1.6h1.3c0.5,0,1.2,0.1,1.2,0.9C385,137.9,384,137.8,383.4,137.8z"/>
<g>
	<path class="st1" d="M98,81.9C95,87.6,90.8,92,85.5,95c-5.3,3-11.4,4.6-18.4,4.6c-5.2,0-10-0.9-14.3-2.8c-4.4-1.9-8.3-4.7-11.8-8.4
		c-2.9-3.1-5.2-6.6-6.7-10.5c-1.5-3.9-2.3-8.2-2.3-12.7c0-4.6,0.9-8.9,2.8-13c1.8-4.1,4.5-7.8,8.1-11.2c3.4-3.1,7.1-5.5,11.2-7.1
		c4.1-1.6,8.5-2.4,13.2-2.4c7.1,0,13.3,1.6,18.7,4.8c5.4,3.2,9.4,7.7,12.1,13.5H86.2c-2.2-2.9-4.9-5.1-8.2-6.6
		c-3.2-1.5-6.9-2.2-11-2.2c-3.3,0-6.4,0.6-9.3,1.8c-2.9,1.2-5.5,2.9-7.8,5.1c-2.4,2.3-4.2,5-5.5,8.1c-1.3,3.1-2,6.2-2,9.4
		c0,3.4,0.6,6.6,1.8,9.7c1.2,3,2.9,5.7,5.2,7.9c2.4,2.3,5.1,4.2,8.2,5.4c3.1,1.3,6.3,1.9,9.5,1.9c4,0,7.5-0.7,10.7-2.1
		c3.2-1.4,5.8-3.5,7.8-6.2H98z"/>
	<path class="st1" d="M104.7,73.6c0-3.5,0.6-6.8,1.9-9.8c1.2-3,3.1-5.8,5.5-8.2c2.6-2.7,5.6-4.7,8.9-6.2c3.3-1.4,6.7-2.2,10.2-2.2
		c3.8,0,7.3,0.6,10.6,1.9c3.2,1.3,6.2,3.2,8.8,5.7c2.6,2.5,4.5,5.3,5.9,8.4c1.4,3.1,2.1,6.3,2.1,9.7c0,3.4-0.6,6.7-1.9,9.9
		c-1.3,3.2-3.1,6-5.4,8.4c-2.7,2.8-5.6,4.9-8.9,6.3c-3.3,1.4-6.8,2.1-10.6,2.1c-3.8,0-7.4-0.7-10.6-2c-3.2-1.3-6.1-3.2-8.7-5.8
		c-2.4-2.4-4.3-5.3-5.7-8.5C105.4,80.2,104.7,76.9,104.7,73.6z M114.4,73.5c0,4.9,1.7,9.1,5,12.4c3.3,3.3,7.4,4.9,12.4,4.9
		c4.8,0,8.9-1.7,12.2-5c3.3-3.3,4.9-7.5,4.9-12.4c0-5-1.6-9.1-4.9-12.4c-3.3-3.3-7.4-4.9-12.3-4.9c-4.9,0-9,1.7-12.3,5
		C116.1,64.4,114.4,68.5,114.4,73.5z"/>
	<path class="st1" d="M176.1,98.3h-9.4V48.8h8.8v5.7c1.5-2.2,3.3-3.8,5.3-4.9c2-1.1,4.3-1.6,7-1.6v9.3c-4.2,0.3-7.2,1.5-9,3.5
		c-1.8,2.1-2.7,5.4-2.7,9.9V98.3z"/>
	<path class="st1" d="M191.6,73.6c0-3.5,0.6-6.8,1.9-9.8c1.2-3,3.1-5.8,5.5-8.2c2.6-2.7,5.6-4.7,8.9-6.2c3.3-1.4,6.7-2.2,10.2-2.2
		c3.8,0,7.3,0.6,10.6,1.9c3.2,1.3,6.2,3.2,8.8,5.7c2.6,2.5,4.5,5.3,5.9,8.4c1.4,3.1,2.1,6.3,2.1,9.7c0,3.4-0.6,6.7-1.9,9.9
		c-1.3,3.2-3.1,6-5.4,8.4c-2.7,2.8-5.6,4.9-8.9,6.3c-3.3,1.4-6.8,2.1-10.6,2.1c-3.8,0-7.4-0.7-10.6-2c-3.2-1.3-6.1-3.2-8.7-5.8
		c-2.4-2.4-4.3-5.3-5.7-8.5C192.3,80.2,191.6,76.9,191.6,73.6z M201.3,73.5c0,4.9,1.7,9.1,5,12.4c3.3,3.3,7.4,4.9,12.4,4.9
		c4.8,0,8.9-1.7,12.2-5c3.3-3.3,4.9-7.5,4.9-12.4c0-5-1.6-9.1-4.9-12.4c-3.3-3.3-7.4-4.9-12.3-4.9c-4.9,0-9,1.7-12.3,5
		C203,64.4,201.3,68.5,201.3,73.5z"/>
	<path class="st1" d="M262.9,98.3h-9.4V48.8h9v5.6c2-2.2,4.1-3.8,6.5-4.9c2.4-1,5.1-1.6,8.1-1.6c6.8,0,12.1,1.9,15.7,5.7
		c3.7,3.8,5.5,9.3,5.5,16.4v28.2h-9.4V72c0-5.2-1-9.1-3.1-11.7c-2.1-2.5-5.2-3.8-9.5-3.8c-4.7,0-8.1,1.5-10.2,4.5
		c-2.1,3-3.2,7.9-3.2,14.8V98.3z"/>
	<path class="st1" d="M351.5,98.3v-6.1c-2.4,2.4-5.1,4.2-8,5.4c-3,1.2-6.1,1.8-9.5,1.8c-7.8,0-14.4-2.5-19.5-7.4
		c-5.2-5-7.8-11.2-7.8-18.6c0-3.5,0.6-6.8,1.9-9.9c1.3-3.1,3.1-5.9,5.5-8.2c2.6-2.6,5.5-4.5,8.6-5.8c3.1-1.2,6.7-1.9,10.6-1.9
		c3.6,0,6.9,0.6,9.9,1.8c3,1.2,5.7,3,8.2,5.4v-6h9.5v49.5H351.5z M316.4,73.2c0,5,1.7,9.2,5.2,12.6c3.5,3.4,7.8,5.1,12.8,5.1
		c4.6,0,8.7-1.7,12.2-5.1c3.5-3.4,5.3-7.4,5.3-11.9c0-4.9-1.7-9-5.2-12.5c-3.5-3.5-7.6-5.2-12.5-5.2c-4.9,0-9.1,1.6-12.6,4.9
		C318.1,64.4,316.4,68.5,316.4,73.2z"/>
</g>
<path class="st2" d="M344.7,140.5H49c-21.1,0-38.2-17.1-38.2-38.2V44.6C10.8,23.5,27.9,6.4,49,6.4h295.7c21.1,0,38.2,17.1,38.2,38.2
	v57.7C382.9,123.4,365.8,140.5,344.7,140.5z"/>
</svg>
