<?xml version="1.0" encoding="utf-8"?>
<!-- Generator: Adobe Illustrator 23.0.6, SVG Export Plug-In . SVG Version: 6.00 Build 0)  -->
<svg version="1.1" id="Layer_1" xmlns="http://www.w3.org/2000/svg" xmlns:xlink="http://www.w3.org/1999/xlink" x="0px" y="0px"
	 viewBox="0 0 1381.1 866.4" style="enable-background:new 0 0 1381.1 866.4;" xml:space="preserve">
<style type="text/css">
	.st0{fill:#DB5027;}
	.st1{fill:none;stroke:#DB5027;stroke-width:38;stroke-miterlimit:10;}
</style>
<path class="st0" d="M1348.1,557c-2.1,0-5.3,0-5.3,0v-6.3h5.3c1.9,0,4.3,0.5,4.3,3.1C1352.2,556.3,1350,557,1348.1,557
	 M1351.5,559.9c0,0,5.1-1.2,5.1-6.2c0-3.4-2.4-6.3-8.2-6.3h-9.7v22.4h4.1v-9.4h4.4c0,0,4.1,4.4,6.3,9.4h5.1
	C1358.5,569.8,1354.9,563.2,1351.5,559.9"/>
<path class="st0" d="M1330.7,558.4c0-9.4,7.7-17.1,17.1-17.1c9.4,0,17.1,7.7,17.1,17.1c0,9.4-7.7,17.1-17.1,17.1
	C1338.4,575.7,1330.7,568,1330.7,558.4 M1326.7,558.4c0,11.6,9.4,21.2,21,21.2c11.6,0,21-9.4,21-21.2c0-11.6-9.4-21-21-21
	C1336.3,537.4,1326.7,546.8,1326.7,558.4"/>
<g>
	<path class="st0" d="M343.1,842.1V672h83.8v22.7h-59.3v50.8h59.3v22.2h-59.3v74.4H343.1z"/>
	<path class="st0" d="M560.4,842.1v-15.8c-5.9,6.2-12.5,10.8-19.8,14c-7.3,3.2-15.1,4.7-23.3,4.7c-19.3,0-35.4-6.4-48.1-19.3
		c-12.8-12.9-19.2-29-19.2-48.4c0-9,1.6-17.6,4.8-25.7c3.2-8.1,7.7-15.2,13.7-21.4c6.5-6.8,13.5-11.8,21.2-15
		c7.7-3.2,16.4-4.8,26.2-4.8c8.8,0,16.9,1.6,24.3,4.7c7.4,3.1,14.1,7.8,20.2,14.1v-15.5h23.4v128.5H560.4z M473.9,777
		c0,13,4.3,23.9,12.9,32.7c8.6,8.8,19.1,13.2,31.6,13.2c11.4,0,21.4-4.4,30.1-13.3c8.7-8.8,13-19.2,13-31c0-12.6-4.3-23.4-12.9-32.4
		c-8.6-9-18.8-13.5-30.7-13.5c-12.2,0-22.5,4.3-31.1,12.9C478.2,754.2,473.9,764.6,473.9,777z"/>
	<path class="st0" d="M689.6,777.3c0-15.7-2.2-27-6.6-34.1c-4.4-7.1-11.4-10.6-21.1-10.6c-9.9,0-17.3,3.6-22,10.7
		c-4.7,7.1-7.1,18.2-7.1,33.1v65.8h-22V713.6h20.6v15.1c4.3-5.8,9.1-10.1,14.5-12.9c5.4-2.8,11.5-4.3,18.5-4.3
		c9.3,0,17.1,1.8,23.3,5.4c6.2,3.6,11.3,9.2,15.3,16.8c4-7.5,9.3-13,15.8-16.7c6.6-3.7,14.6-5.5,24-5.5c14.5,0,26.2,4.7,34.9,14.2
		c8.7,9.5,13.1,22.1,13.1,37.9v78.5h-23.2v-74.9c0-11-2.4-19.5-7.2-25.6c-4.8-6.1-11.5-9.1-20.1-9.1c-10,0-17.2,3.2-21.6,9.7
		c-4.4,6.5-6.6,17.4-6.6,32.7v67.2h-22.4V777.3z"/>
	<path class="st0" d="M841.2,698.5h-22.9V672h22.9V698.5z M818.3,842.1V713.6h22.9v128.5H818.3z"/>
	<path class="st0" d="M868.8,842.1V672h22.9v170.1H868.8z"/>
	<path class="st0" d="M942.2,698.5h-22.9V672h22.9V698.5z M919.3,842.1V713.6h22.9v128.5H919.3z"/>
	<path class="st0" d="M1073.6,842.1v-15.8c-5.9,6.2-12.5,10.8-19.8,14c-7.3,3.2-15.1,4.7-23.3,4.7c-19.3,0-35.4-6.4-48.1-19.3
		c-12.8-12.9-19.2-29-19.2-48.4c0-9,1.6-17.6,4.8-25.7c3.2-8.1,7.7-15.2,13.7-21.4c6.5-6.8,13.5-11.8,21.2-15
		c7.7-3.2,16.4-4.8,26.2-4.8c8.8,0,16.9,1.6,24.3,4.7c7.4,3.1,14.1,7.8,20.2,14.1v-15.5h23.4v128.5H1073.6z M987.2,777
		c0,13,4.3,23.9,12.9,32.7c8.6,8.8,19.1,13.2,31.6,13.2c11.4,0,21.4-4.4,30.1-13.3c8.7-8.8,13-19.2,13-31c0-12.6-4.3-23.4-12.9-32.4
		c-8.6-9-18.8-13.5-30.7-13.5c-12.2,0-22.5,4.3-31.1,12.9C991.5,754.2,987.2,764.6,987.2,777z"/>
	<path class="st0" d="M1147.2,842.1h-23.1V713.6h21.7v14.8c3.8-5.7,8.2-9.9,13.1-12.7c4.9-2.8,10.7-4.2,17.2-4.3v24.2
		c-10.4,0.8-17.8,3.8-22.3,9.2c-4.5,5.3-6.7,13.9-6.7,25.8V842.1z"/>
</g>
<g>
	<path class="st0" d="M337.6,336.4c-10.7,20.5-25.6,36.2-44.5,47.1c-18.9,10.9-40.9,16.3-65.9,16.3c-18.6,0-35.7-3.4-51.3-10.1
		c-15.7-6.8-29.7-16.8-42.2-30.1c-10.5-11-18.5-23.6-23.9-37.7c-5.4-14.1-8.1-29.2-8.1-45.3c0-16.3,3.3-31.8,9.8-46.4
		c6.6-14.6,16.2-28,28.8-40c12-11.2,25.3-19.6,40-25.3c14.6-5.7,30.4-8.6,47.3-8.6c25.3,0,47.6,5.7,66.8,17.1
		c19.2,11.4,33.6,27.5,43.3,48.3h-42.1c-7.9-10.4-17.6-18.2-29.2-23.5c-11.5-5.3-24.6-7.9-39.2-7.9c-11.7,0-22.7,2.1-33.3,6.3
		c-10.5,4.2-19.8,10.2-28,18.2c-8.5,8.3-15.1,17.9-19.8,28.8c-4.8,10.9-7.1,22.1-7.1,33.5c0,12.2,2.1,23.8,6.4,34.7
		c4.3,10.9,10.5,20.3,18.5,28.2c8.5,8.4,18.3,14.9,29.4,19.5c11.1,4.6,22.4,6.9,33.9,6.9c14.1,0,26.9-2.5,38.3-7.6
		c11.4-5.1,20.7-12.5,28.1-22.1H337.6z"/>
	<path class="st0" d="M361.5,306.8c0-12.5,2.2-24.3,6.7-35.2c4.5-10.9,11.1-20.7,19.8-29.4c9.4-9.5,20-16.9,31.7-22
		c11.8-5.1,24-7.7,36.6-7.7c13.6,0,26.2,2.3,37.7,6.9c11.6,4.6,22.1,11.4,31.5,20.4c9.2,8.9,16.2,18.9,21.1,30.1
		c4.9,11.2,7.4,22.7,7.4,34.6c0,12.1-2.3,23.9-6.9,35.4c-4.6,11.5-11,21.5-19.3,30.1c-9.5,9.9-20.2,17.4-32,22.4
		c-11.8,5.1-24.4,7.6-37.7,7.6c-13.7,0-26.3-2.3-37.8-7c-11.5-4.7-21.9-11.6-31-20.7c-8.7-8.7-15.5-18.8-20.4-30.3
		C364,330.6,361.5,318.8,361.5,306.8z M396.3,306.5c0,17.7,5.9,32.4,17.7,44.2c11.8,11.8,26.6,17.7,44.2,17.7
		c17.3,0,31.8-5.9,43.5-17.8c11.7-11.9,17.6-26.7,17.6-44.5c0-17.9-5.9-32.7-17.6-44.4c-11.7-11.7-26.3-17.5-43.9-17.5
		c-17.4,0-32,5.9-43.9,17.8C402.2,273.8,396.3,288.7,396.3,306.5z"/>
	<path class="st0" d="M616.9,395.1h-33.6v-177h31.6v20.4c5.5-7.8,11.9-13.6,19.1-17.5c7.2-3.8,15.5-5.8,25-5.9v33.3
		c-15,1.1-25.8,5.3-32.3,12.6c-6.5,7.3-9.8,19.2-9.8,35.5V395.1z"/>
	<path class="st0" d="M672.5,306.8c0-12.5,2.2-24.3,6.7-35.2c4.5-10.9,11.1-20.7,19.8-29.4c9.4-9.5,20-16.9,31.7-22
		c11.8-5.1,24-7.7,36.6-7.7c13.6,0,26.2,2.3,37.8,6.9c11.6,4.6,22.1,11.4,31.5,20.4c9.2,8.9,16.2,18.9,21.1,30.1
		c4.9,11.2,7.4,22.7,7.4,34.6c0,12.1-2.3,23.9-6.9,35.4c-4.6,11.5-11,21.5-19.3,30.1c-9.5,9.9-20.2,17.4-32,22.4
		c-11.8,5.1-24.4,7.6-37.7,7.6c-13.7,0-26.3-2.3-37.8-7c-11.5-4.7-21.9-11.6-31-20.7c-8.7-8.7-15.5-18.8-20.4-30.3
		C675,330.6,672.5,318.8,672.5,306.8z M707.3,306.5c0,17.7,5.9,32.4,17.7,44.2c11.8,11.8,26.6,17.7,44.2,17.7
		c17.3,0,31.8-5.9,43.5-17.8c11.7-11.9,17.6-26.7,17.6-44.5c0-17.9-5.9-32.7-17.6-44.4c-11.7-11.7-26.3-17.5-43.9-17.5
		c-17.4,0-32,5.9-43.9,17.8C713.2,273.8,707.3,288.7,707.3,306.5z"/>
	<path class="st0" d="M927.5,395.1h-33.6v-177h32.2v20.1c7-7.9,14.7-13.8,23.2-17.5c8.4-3.7,18.1-5.6,28.9-5.6
		c24.4,0,43.2,6.8,56.2,20.4c13.1,13.6,19.6,33.1,19.6,58.6v100.9h-33.8v-94c0-18.8-3.7-32.7-11-41.7c-7.4-9.1-18.7-13.6-34.1-13.6
		c-16.7,0-28.9,5.3-36.4,16c-7.5,10.7-11.3,28.3-11.3,52.8V395.1z"/>
	<path class="st0" d="M1244.3,395.1v-21.7c-8.6,8.5-18.2,14.9-28.8,19.2c-10.6,4.3-21.9,6.5-33.8,6.5c-28.1,0-51.4-8.9-69.9-26.6
		c-18.6-17.7-27.8-40-27.8-66.7c0-12.4,2.3-24.2,7-35.4c4.6-11.2,11.3-21,19.9-29.4c9.4-9.3,19.7-16.2,30.8-20.7
		c11.1-4.4,23.8-6.7,38.1-6.7c12.8,0,24.5,2.1,35.3,6.4c10.7,4.3,20.5,10.8,29.4,19.5v-21.4h33.9v177H1244.3z M1118.7,305.5
		c0,17.9,6.2,32.9,18.7,45c12.5,12.1,27.8,18.2,45.9,18.2c16.5,0,31.1-6.1,43.7-18.3c12.6-12.2,18.9-26.4,18.9-42.7
		c0-17.4-6.3-32.3-18.7-44.6c-12.5-12.4-27.3-18.6-44.5-18.6c-17.6,0-32.7,5.9-45.2,17.7C1125,274,1118.7,288.4,1118.7,305.5z"/>
</g>
<path class="st1" d="M1255.6,542.5H126.8c-55.8,0-101.1-45.3-101.1-101.1V164.1C25.7,108.2,71,63,126.8,63h1128.9
	c55.8,0,101.1,45.3,101.1,101.1v277.4C1356.7,497.3,1311.5,542.5,1255.6,542.5z"/>
</svg>
